<svg width="92" height="66" viewBox="0 0 92 66" fill="none" xmlns="http://www.w3.org/2000/svg">
<path d="M89.1769 2.41813L89.5297 2.06391L89.1769 2.41813C90.0696 3.30753 90.515 4.37836 90.5207 5.66004L90.5672 16.1437C90.5724 17.3042 90.2273 18.284 89.539 19.1091C88.8507 19.934 88.02 20.4365 87.0357 20.6366L86.9783 20.6368L86.9259 20.6371L86.8748 20.6481C84.0927 21.2497 81.7706 22.7001 79.9205 24.9815C78.0665 27.2675 77.1426 29.8897 77.1556 32.8292C77.1687 35.7687 78.1159 38.3826 79.99 40.652C81.8629 42.92 84.2349 44.348 87.0905 44.9235L87.0905 44.9236L87.0988 44.9252C88.1043 45.11 88.9543 45.6077 89.6603 46.4388C90.3559 47.2577 90.7097 48.2345 90.7148 49.395L90.7614 59.8786C90.7671 61.1603 90.3312 62.235 89.4464 63.1323C88.5617 64.0295 87.4975 64.4762 86.2247 64.4818L5.31228 64.841C4.03946 64.8467 2.97139 64.4094 2.07875 63.5201C1.186 62.6307 0.740595 61.5599 0.734906 60.2782L0.68837 49.7946C0.683219 48.6341 1.02829 47.6543 1.71664 46.8292C2.40486 46.0042 3.23562 45.5017 4.21988 45.3017L4.27733 45.3014L4.32966 45.3012L4.3808 45.2902C7.16287 44.6885 9.48497 43.2381 11.3352 40.9568C13.1891 38.6708 14.113 36.0486 14.1 33.1091C14.0869 30.1696 13.1397 27.5557 11.2656 25.2863C9.39268 23.0183 7.02069 21.5903 4.16514 21.0147L4.16516 21.0147L4.15677 21.0131C3.15127 20.8282 2.30134 20.3306 1.59532 19.4995C0.899683 18.6805 0.545924 17.7038 0.540773 16.5433L0.494237 6.05965C0.488548 4.77798 0.924434 3.70323 1.80925 2.80594C2.69396 1.90876 3.7581 1.46208 5.03092 1.45643L85.9433 1.09727C87.2162 1.09162 88.2842 1.52883 89.1769 2.41813ZM4.70884 18.7123L4.74989 18.719L4.79148 18.7188L4.84568 18.7186C8.1527 19.3927 10.9058 21.0614 13.1188 23.7405C15.3389 26.4282 16.4555 29.5406 16.4713 33.0986C16.4871 36.6565 15.3981 39.7788 13.202 42.486C11.0056 45.1936 8.21999 46.891 4.8286 47.5901C4.29588 47.6837 3.85121 47.9409 3.52674 48.364C3.21109 48.7757 3.05739 49.2562 3.05973 49.784L3.10627 60.2677C3.10898 60.8792 3.31172 61.4158 3.73288 61.8354C4.15422 62.2552 4.69118 62.455 5.30168 62.4523L30.5868 62.3401L31.0868 62.3379L31.0846 61.8379L30.8289 4.23064L30.8266 3.73064L30.3267 3.73286L5.04153 3.8451C4.43103 3.84781 3.89587 4.05244 3.47826 4.47594C3.06085 4.89923 2.86288 5.43768 2.8656 6.04913L2.91213 16.5328C2.91448 17.0607 3.07244 17.5397 3.39173 17.9486C3.72167 18.3711 4.17158 18.6248 4.70884 18.7123ZM86.5468 47.226L86.5057 47.2193L86.4641 47.2195L86.4099 47.2197C83.1029 46.5456 80.3498 44.8768 78.1368 42.1978C75.9168 39.5101 74.8001 36.3977 74.7843 32.8397C74.7685 29.2838 75.8737 26.1625 78.1039 23.4549C80.3378 20.7429 83.1083 19.0462 86.4281 18.348C86.9604 18.2542 87.4046 17.9971 87.7289 17.5742C88.0445 17.1626 88.1982 16.6821 88.1959 16.1542L88.1493 5.67057C88.1466 5.05911 87.9439 4.52245 87.5227 4.10287C87.1014 3.6831 86.5644 3.48323 85.9539 3.48594L33.698 3.7179L33.198 3.72012L33.2002 4.22011L33.4559 61.8274L33.4582 62.3274L33.9582 62.3251L86.2141 62.0932C86.8246 62.0905 87.3597 61.8858 87.7773 61.4623C88.1948 61.039 88.3927 60.5006 88.39 59.8891L88.3435 49.4055C88.3411 48.8776 88.1832 48.3985 87.8639 47.9897C87.5339 47.5672 87.084 47.3135 86.5468 47.226Z" fill="white" stroke="#9FC52A"/>
</svg>
