<svg width="71" height="71" viewBox="0 0 71 71" fill="none" xmlns="http://www.w3.org/2000/svg">
<path d="M3.08696 18.0717H2.63696V18.5217V64.8261C2.63696 65.7859 2.993 66.6226 3.6852 67.3148C4.3774 68.007 5.21412 68.363 6.17391 68.363H49.3913H49.8413V67.913V52.4783C49.8413 50.8569 50.3917 49.5096 51.4941 48.4072C52.5966 47.3048 53.9439 46.7543 55.5652 46.7543H67.913H68.363V46.3043V18.5217V18.0717H67.913H3.08696ZM2.63696 15.4348V15.8848H3.08696H67.913H68.363V15.4348V6.17391C68.363 5.21412 68.007 4.3774 67.3148 3.6852C66.6226 2.993 65.7859 2.63696 64.8261 2.63696H6.17391C5.21412 2.63696 4.3774 2.993 3.6852 3.6852C2.993 4.3774 2.63696 5.21412 2.63696 6.17391V15.4348ZM52.0283 66.3696V67.5913L52.8207 66.6615L67.2909 49.6832L67.9232 48.9413H66.9484H55.5652C54.6054 48.9413 53.7687 49.2973 53.0765 49.9895C52.3843 50.6817 52.0283 51.5185 52.0283 52.4783V66.3696ZM12.3478 39.6804H11.8978V40.1304V43.2174V43.6674H12.3478H15.4348H15.8848V43.2174V40.1304V39.6804H15.4348H12.3478ZM12.3478 27.3326H11.8978V27.7826V30.8696V31.3196H12.3478H15.4348H15.8848V30.8696V27.7826V27.3326H15.4348H12.3478ZM12.3478 52.0283H11.8978V52.4783V55.5652V56.0152H12.3478H15.4348H15.8848V55.5652V52.4783V52.0283H15.4348H12.3478ZM50.9348 70.55H6.17391C4.55644 70.55 3.2104 69.9864 2.10706 68.8532C0.997275 67.7134 0.45 66.3783 0.45 64.8261V6.17391C0.45 4.62554 1.01039 3.29177 2.15108 2.15108C3.29177 1.01039 4.62554 0.45 6.17391 0.45H64.8261C66.3783 0.45 67.7134 0.997275 68.8532 2.10706C69.9864 3.2104 70.55 4.55644 70.55 6.17391V49.2248L52.2713 70.55H50.9348ZM45.8543 42.7674H25.1457V40.5804H45.8543V42.7674ZM9.71087 37.4935H18.0717V45.8543H9.71087V37.4935ZM61.2891 30.4196H25.1457V28.2326H61.2891V30.4196ZM9.71087 25.1457H18.0717V33.5065H9.71087V25.1457ZM42.7674 55.1152H25.1457V52.9283H42.7674V55.1152ZM9.71087 49.8413H18.0717V58.2022H9.71087V49.8413Z" fill="white" stroke="#9FC52A" stroke-width="0.9"/>
</svg>
