<svg width="72" height="72" viewBox="0 0 72 72" fill="none" xmlns="http://www.w3.org/2000/svg">
<path d="M9.75 62.25V63V69.75C9.75 70.1478 9.90802 70.5293 10.1893 70.8106C10.4707 71.0919 10.8522 71.25 11.25 71.25H30.75V68.25H13.5H12.75V67.5V54V53.25H13.5H30.75V50.25H11.25C10.8522 50.25 10.4707 50.4081 10.1893 50.6894C9.90803 50.9707 9.75 51.3522 9.75 51.75V58.5V59.25H9H6.75C5.95432 59.25 5.19127 58.9339 4.62868 58.3713C4.06607 57.8087 3.75 57.0457 3.75 56.25V33.75C3.75 32.9543 4.06607 32.1913 4.62868 31.6287C5.19127 31.0661 5.95432 30.75 6.75 30.75H65.2492H65.25V31.5C65.6619 31.4995 66.0661 31.6122 66.4184 31.8256C66.7694 32.0382 67.0555 32.3428 67.2458 32.7063L9.75 62.25ZM9.75 62.25H9H6.75C5.15869 62.25 3.63257 61.6179 2.50736 60.4927C1.38215 59.3675 0.75 57.8413 0.75 56.25V33.75C0.75 32.1587 1.38214 30.6326 2.50736 29.5074C3.63259 28.3822 5.15871 27.75 6.75 27.75H9H9.75V27V6.75C9.75 5.15871 10.3821 3.63261 11.5074 2.50739C12.6326 1.38216 14.1587 0.75 15.75 0.75H40.8779C41.5398 0.758296 42.1956 0.876477 42.8187 1.09976L42.9584 1.14981L43.1066 1.14291C43.2948 1.13415 43.483 1.16286 43.6601 1.22737C43.8329 1.29035 43.9919 1.38621 44.1282 1.50962L60.492 17.8711L60.492 17.8712C61.6173 18.9961 62.2496 20.5219 62.25 22.113C62.25 22.1131 62.25 22.1131 62.25 22.1132V27V27.75H63H65.25H65.2504C66.3474 27.7495 67.4236 28.0497 68.3619 28.6182C69.0852 29.0563 69.7051 29.6408 70.1838 30.3311M9.75 62.25L70.1838 30.3311M70.1838 30.3311L67.4817 31.7423C67.2862 31.5253 67.0592 31.3369 66.807 31.1842L70.1838 30.3311ZM45.5304 7.15129L44.25 5.87029V7.6815V15.75C44.25 16.5457 44.5661 17.3087 45.1287 17.8713C45.6913 18.4339 46.4543 18.75 47.25 18.75H55.314H57.1241L55.8444 17.4698L45.5304 7.15129ZM41.25 4.5V3.75H40.5H15.75C14.9543 3.75 14.1913 4.06612 13.6287 4.62871C13.0661 5.19131 12.75 5.95434 12.75 6.75V27V27.75H13.5H58.5H59.25V27V22.5V21.75H58.5H47.25C45.6587 21.75 44.1326 21.1178 43.0074 19.9926C41.8821 18.8674 41.25 17.3413 41.25 15.75V4.5Z" fill="white" stroke="#9FC52A" stroke-width="1.5"/>
<path d="M17.2456 38.25C17.2456 39.0784 16.574 39.75 15.7456 39.75C14.9172 39.75 14.2456 39.0784 14.2456 38.25C14.2456 37.4216 14.9172 36.75 15.7456 36.75C16.574 36.75 17.2456 37.4216 17.2456 38.25Z" fill="white" stroke="#9FC52A" stroke-width="1.5"/>
</svg>
