<svg width="109" height="70" viewBox="0 0 109 70" fill="none" xmlns="http://www.w3.org/2000/svg">
<path d="M15.0884 43.2649V55.3916H27.215" stroke="white" stroke-width="1.5" stroke-miterlimit="10" stroke-linecap="round" stroke-linejoin="round"/>
<path d="M44.335 55.3917H74.4734V16.8717V1H15.0884V11.165" stroke="white" stroke-width="1.5" stroke-miterlimit="10" stroke-linecap="round" stroke-linejoin="round"/>
<path d="M99.7967 55.3917H108V38.8067L95.5167 16.8717H74.4734V55.3917H82.6767" stroke="white" stroke-width="1.5" stroke-miterlimit="10" stroke-linecap="round" stroke-linejoin="round"/>
<path d="M3.85327 11.3435H31.1383" stroke="white" stroke-width="1.5" stroke-miterlimit="10" stroke-linecap="round" stroke-linejoin="round"/>
<path d="M7.42017 22.0435H34.7052" stroke="white" stroke-width="1.5" stroke-miterlimit="10" stroke-linecap="round" stroke-linejoin="round"/>
<path d="M1 32.7435H26.68" stroke="white" stroke-width="1.5" stroke-miterlimit="10" stroke-linecap="round" stroke-linejoin="round"/>
<path d="M10.4517 43.4434H37.7367" stroke="white" stroke-width="1.5" stroke-miterlimit="10" stroke-linecap="round" stroke-linejoin="round"/>
<path d="M91.2367 69.1234C96.5552 69.1234 100.867 64.8119 100.867 59.4934C100.867 54.1749 96.5552 49.8634 91.2367 49.8634C85.9182 49.8634 81.6067 54.1749 81.6067 59.4934C81.6067 64.8119 85.9182 69.1234 91.2367 69.1234Z" stroke="white" stroke-width="1.5" stroke-miterlimit="10" stroke-linecap="round" stroke-linejoin="round"/>
<path d="M35.775 69.1234C41.0935 69.1234 45.405 64.8119 45.405 59.4934C45.405 54.1749 41.0935 49.8634 35.775 49.8634C30.4565 49.8634 26.145 54.1749 26.145 59.4934C26.145 64.8119 30.4565 69.1234 35.775 69.1234Z" stroke="white" stroke-width="1.5" stroke-miterlimit="10" stroke-linecap="round" stroke-linejoin="round"/>
<path d="M35.775 63.2383C37.8433 63.2383 39.52 61.5616 39.52 59.4933C39.52 57.425 37.8433 55.7483 35.775 55.7483C33.7067 55.7483 32.03 57.425 32.03 59.4933C32.03 61.5616 33.7067 63.2383 35.775 63.2383Z" stroke="white" stroke-width="1.5" stroke-miterlimit="10" stroke-linecap="round" stroke-linejoin="round"/>
<path d="M91.2365 63.2383C93.3048 63.2383 94.9815 61.5616 94.9815 59.4933C94.9815 57.425 93.3048 55.7483 91.2365 55.7483C89.1681 55.7483 87.4915 57.425 87.4915 59.4933C87.4915 61.5616 89.1681 63.2383 91.2365 63.2383Z" stroke="white" stroke-width="1.5" stroke-miterlimit="10" stroke-linecap="round" stroke-linejoin="round"/>
<path d="M81.6067 24.1833V38.45H98.0134" stroke="white" stroke-width="1.5" stroke-miterlimit="10" stroke-linecap="round" stroke-linejoin="round"/>
</svg>
