<svg width="260" height="53" viewBox="0 0 260 53" fill="none" xmlns="http://www.w3.org/2000/svg">
<path d="M10.9 52.4042H0V14.6042H10.8L10.6 18.0042C11.0173 17.3673 11.4855 16.7654 12 16.2042C12.4492 15.7445 12.953 15.3415 13.5 15.0042C14.0202 14.72 14.6076 14.5818 15.2 14.6042H17.3C18.6277 14.5787 19.9429 14.8639 21.1409 15.4368C22.3389 16.0097 23.3864 16.8546 24.2 17.9042C26.0192 20.4298 26.9351 23.4944 26.8 26.6042C26.8 30.3042 26 33.2042 24.3 35.3042C23.5078 36.3455 22.4759 37.1802 21.2921 37.7373C20.1082 38.2944 18.8073 38.5575 17.5 38.5042C14.9 38.5042 12.6 37.3042 10.6 34.8042C10.7 35.6042 10.7 36.2042 10.8 36.7042C10.8884 37.3669 10.9219 38.0359 10.9 38.7042V52.4042ZM16 26.4042C16.085 25.2279 15.8427 24.0511 15.3 23.0042C15.1338 22.6414 14.8657 22.3348 14.5284 22.1218C14.191 21.9087 13.799 21.7983 13.4 21.8042C11.7 21.8042 10.9 23.4042 10.9 26.5042C10.9 29.7042 11.7 31.3042 13.3 31.3042C13.712 31.3096 14.1157 31.1876 14.4558 30.9549C14.7959 30.7222 15.0558 30.3902 15.2 30.0042C15.7669 28.8912 16.0422 27.6525 16 26.4042Z" fill="#707070"/>
<path d="M41.8 38.504H30.9V14.604H41.8L41.2 19.304C41.8412 17.6949 42.963 16.3225 44.4125 15.3741C45.862 14.4256 47.5687 13.9472 49.3 14.004V24.004C48.3584 23.5533 47.341 23.282 46.3 23.204C45.6723 23.1545 45.0414 23.2454 44.4533 23.4703C43.8652 23.6952 43.3345 24.0483 42.9 24.504C42.0315 25.5721 41.6024 26.9309 41.7 28.304V38.504H41.8Z" fill="#707070"/>
<path d="M64.4 5.20415C64.3986 5.91325 64.225 6.61141 63.894 7.23853C63.563 7.86564 63.0846 8.40294 62.5 8.80415C61.2133 9.79972 59.6266 10.3286 58 10.3042C56.3684 10.3612 54.7709 9.82871 53.5 8.80415C52.9407 8.36276 52.4883 7.80076 52.1767 7.16008C51.865 6.51941 51.702 5.81661 51.7 5.10415C51.7033 4.40614 51.8673 3.71827 52.1795 3.09394C52.4917 2.4696 52.9435 1.9256 53.5 1.50415C54.7866 0.508588 56.3733 -0.0203139 58 0.00415263C59.6315 -0.0529047 61.229 0.479592 62.5 1.50415C63.088 1.92545 63.567 2.48087 63.8975 3.12434C64.2279 3.76781 64.4002 4.4808 64.4 5.20415ZM63.5 38.5042H52.5999V14.6042H63.5V38.5042Z" fill="#707070"/>
<path d="M95.4 38.5041H84.5V25.8041C84.5614 25.005 84.3876 24.2055 84 23.5041C83.7807 23.2817 83.5137 23.1121 83.2192 23.0081C82.9246 22.9042 82.6103 22.8686 82.3 22.9041C80.4 22.9041 79.4 24.1041 79.4 26.4041V38.5041H68.5V14.6041H79.4C79.4198 15.1394 79.3863 15.6754 79.3 16.2041C79.3202 16.673 79.2866 17.1427 79.2 17.6041L79.1 19.1041C79.9382 17.6584 81.1528 16.4672 82.6144 15.6572C84.076 14.8471 85.7299 14.4486 87.4 14.5041C88.474 14.441 89.5497 14.5943 90.5632 14.9551C91.5767 15.3158 92.5074 15.8766 93.3 16.6041C94.0267 17.3768 94.5878 18.2899 94.9489 19.2872C95.31 20.2846 95.4635 21.3452 95.4 22.4041V38.5041Z" fill="#707070"/>
<path d="M111.6 38.5042H100.7V21.7042H97.6V14.5042H100.7V7.50415H111.6V14.6042H115.2V21.8041H111.6V38.5042Z" fill="#707070"/>
<path d="M135 38.5042H123.7L115.6 14.6042H126.6L128.3 21.6042C128.592 22.7194 128.793 23.8565 128.9 25.0042C129.1 26.3042 129.3 27.9042 129.5 29.8042C129.8 28.1042 130 26.6042 130.2 25.4042C130.4 24.1042 130.7 23.1042 130.9 22.2042L132.8 14.7042H143.5L135 38.5042Z" fill="#707070"/>
<path d="M157.8 5.20415C157.799 5.91325 157.625 6.61141 157.294 7.23853C156.963 7.86564 156.485 8.40294 155.9 8.80415C154.613 9.79972 153.027 10.3286 151.4 10.3042C149.768 10.3612 148.171 9.82871 146.9 8.80415C146.341 8.36276 145.888 7.80076 145.577 7.16008C145.265 6.51941 145.102 5.81661 145.1 5.10415C145.103 4.40614 145.267 3.71827 145.58 3.09394C145.892 2.4696 146.344 1.9256 146.9 1.50415C148.187 0.508588 149.773 -0.0203139 151.4 0.00415263C153.031 -0.0529047 154.629 0.479592 155.9 1.50415C156.488 1.92545 156.967 2.48087 157.298 3.12434C157.628 3.76781 157.8 4.4808 157.8 5.20415ZM156.9 38.5042H146V14.6042H156.9V38.5042Z" fill="#707070"/>
<path d="M160.6 36.0042L164.6 29.3042C166.039 30.7626 167.957 31.6507 170 31.8042C171.4 31.8042 172.1 31.4042 172.1 30.6042C172.1 29.9042 171.2 29.3042 169.3 28.8042C164.3 27.4042 161.8 25.2042 161.8 22.2042C161.8 20.0042 162.9 18.2042 165.2 16.7042C167.791 15.1477 170.78 14.383 173.8 14.5042C176.806 14.5673 179.768 15.248 182.5 16.5042L178.8 23.2042C177 21.8042 175.5 21.1042 174.3 21.1042C173.2 21.1042 172.6 21.5042 172.6 22.1042C172.6 22.9042 173.7 23.6042 175.8 24.2042C177.794 24.6793 179.667 25.5648 181.3 26.8042C181.8 27.2781 182.192 27.8535 182.451 28.4917C182.71 29.1299 182.829 29.8161 182.8 30.5042C182.799 31.6591 182.481 32.7916 181.882 33.7788C181.282 34.766 180.424 35.5702 179.4 36.1042C176.82 37.6856 173.823 38.4523 170.8 38.3042C169.155 38.2863 167.515 38.1189 165.9 37.8042C165.1 37.6042 164.3 37.4042 163.4 37.1042C162.8 36.9042 161.7 36.5042 160.6 36.0042Z" fill="#707070"/>
<path d="M198.4 5.20415C198.399 5.91325 198.225 6.61141 197.894 7.23853C197.563 7.86564 197.085 8.40294 196.5 8.80415C195.213 9.79972 193.627 10.3286 192 10.3042C190.368 10.3612 188.771 9.82871 187.5 8.80415C186.941 8.36276 186.488 7.80076 186.177 7.16008C185.865 6.51941 185.702 5.81661 185.7 5.10415C185.703 4.40614 185.867 3.71827 186.18 3.09394C186.492 2.4696 186.944 1.9256 187.5 1.50415C188.787 0.508588 190.373 -0.0203139 192 0.00415263C193.631 -0.0529047 195.229 0.479592 196.5 1.50415C197.088 1.92545 197.567 2.48087 197.897 3.12434C198.228 3.76781 198.4 4.4808 198.4 5.20415ZM197.5 38.5042H186.6V14.6042H197.5V38.5042Z" fill="#707070"/>
<path d="M229.3 26.9042C229.351 28.5162 229.036 30.1188 228.377 31.5912C227.719 33.0636 226.735 34.3673 225.5 35.4042C223 37.5042 219.6 38.5042 215.4 38.5042C211.2 38.5042 207.9 37.4042 205.4 35.3042C204.167 34.2272 203.193 32.8851 202.553 31.3784C201.912 29.8717 201.62 28.2396 201.7 26.6042C201.648 24.963 201.962 23.3308 202.62 21.826C203.277 20.3213 204.261 18.9816 205.5 17.9042C208 15.7042 211.3 14.6042 215.4 14.6042C219.7 14.6042 223.1 15.7042 225.6 17.9042C226.844 19.0376 227.821 20.4326 228.46 21.9888C229.1 23.5451 229.387 25.2239 229.3 26.9042ZM218.3 26.6042C218.292 25.8667 218.225 25.1311 218.1 24.4042C218.023 23.8014 217.818 23.2219 217.5 22.7042C217.251 22.2989 216.948 21.9289 216.6 21.6042C216.257 21.3393 215.834 21.1984 215.4 21.2042C214.94 21.2167 214.495 21.3661 214.121 21.6333C213.747 21.9006 213.461 22.2735 213.3 22.7042C212.702 23.9137 212.427 25.2571 212.5 26.6042C212.439 27.9505 212.714 29.2909 213.3 30.5042C213.461 30.935 213.747 31.3079 214.121 31.5752C214.495 31.8424 214.94 31.9918 215.4 32.0042C215.84 31.9675 216.263 31.8198 216.63 31.575C216.998 31.3301 217.297 30.9961 217.5 30.6042C218.061 29.3472 218.335 27.9805 218.3 26.6042Z" fill="#707070"/>
<path d="M260 52.4041H249.1V25.8041C249.161 25.005 248.988 24.2055 248.6 23.5041C248.381 23.2817 248.114 23.1121 247.819 23.0081C247.525 22.9042 247.21 22.8686 246.9 22.9041C245 22.9041 244 24.1041 244 26.4041V38.5041H233V14.6041H243.9C243.92 15.1394 243.886 15.6754 243.8 16.2041C243.82 16.673 243.787 17.1427 243.7 17.6041L243.6 19.1041C244.438 17.6584 245.653 16.4672 247.114 15.6572C248.576 14.8471 250.23 14.4486 251.9 14.5041C252.974 14.441 254.05 14.5943 255.063 14.9551C256.077 15.3158 257.007 15.8766 257.8 16.6041C258.527 17.3768 259.088 18.2899 259.449 19.2872C259.81 20.2846 259.963 21.3452 259.9 22.4041V52.4041H260Z" fill="#707070"/>
<path d="M243.9 43.9041H17.2V52.4041H243.9V43.9041Z" fill="#9FC52A"/>
</svg>
