<?xml version="1.0" standalone="no"?>
<!DOCTYPE svg PUBLIC "-//W3C//DTD SVG 20010904//EN"
 "http://www.w3.org/TR/2001/REC-SVG-20010904/DTD/svg10.dtd">
<svg version="1.0" xmlns="http://www.w3.org/2000/svg"
 width="1792.000000pt" height="1024.000000pt" viewBox="0 0 1792.000000 1024.000000"
 preserveAspectRatio="xMidYMid meet">
<metadata>
Created by potrace 1.16, written by Peter Selinger 2001-2019
</metadata>
<g transform="translate(0.000000,1024.000000) scale(0.100000,-0.100000)"
fill="#000000" stroke="none">
<path d="M2398 9803 c-1 -241 -1 -455 -1 -475 -1 -21 -2 -37 -3 -35 -1 1 -32
94 -69 205 -37 112 -68 202 -70 200 -3 -2 2 -26 10 -54 62 -204 133 -467 140
-511 2 -11 6 -30 10 -42 3 -11 2 -29 -4 -38 -9 -16 -10 -15 -11 6 0 13 -8 38
-18 55 -10 17 -29 63 -42 103 -14 40 -27 67 -31 61 -5 -7 -8 -6 -12 3 -5 16 0
-11 9 -43 5 -18 4 -20 -5 -8 -17 23 -13 -1 11 -76 12 -38 21 -78 21 -89 -1
-11 16 -74 38 -140 21 -66 41 -136 45 -155 3 -19 -13 18 -35 83 -23 65 -46
126 -52 135 -13 20 -12 17 26 -96 15 -46 25 -85 23 -87 -2 -3 -19 40 -38 95
-19 55 -36 98 -38 95 -2 -2 6 -34 18 -70 12 -36 20 -68 18 -71 -3 -2 -10 14
-17 37 -7 22 -15 39 -18 36 -5 -6 34 -124 47 -142 10 -14 21 -60 11 -49 -4 5
-23 46 -41 91 -19 46 -35 81 -37 80 -1 -2 13 -48 33 -103 26 -72 37 -118 39
-171 1 -40 2 -73 0 -73 -1 0 -15 39 -29 86 -15 47 -29 84 -32 82 -2 -3 15 -61
37 -129 23 -68 42 -132 42 -141 1 -9 4 -15 8 -12 4 2 10 -3 13 -12 9 -24 7
-31 -5 -14 -12 17 -12 16 28 -95 92 -254 241 -623 286 -710 47 -89 28 -36 -37
108 -35 78 -84 196 -109 262 -25 66 -62 162 -82 214 -22 57 -33 101 -29 113 5
16 8 18 15 7 5 -8 9 -18 9 -24 0 -5 -5 -3 -10 5 -19 29 -10 -9 21 -89 19 -49
35 -79 41 -74 7 3 8 1 4 -6 -8 -13 58 -190 147 -391 33 -74 60 -151 61 -170 1
-19 10 -47 20 -62 10 -16 14 -28 9 -28 -5 0 -15 10 -21 23 -32 63 -147 319
-164 365 -11 29 -22 51 -25 49 -2 -3 1 -15 7 -27 6 -12 9 -28 6 -36 -3 -9 -1
-12 4 -9 6 3 10 0 10 -7 0 -7 30 -78 65 -158 36 -80 65 -147 64 -150 0 -3 -16
24 -35 60 -19 36 -47 89 -63 118 -16 28 -26 52 -24 52 3 0 0 7 -7 15 -7 8 -9
15 -4 15 5 0 4 4 -1 8 -12 8 -109 204 -107 215 1 4 -3 7 -9 7 -5 0 -7 5 -4 10
3 6 2 10 -3 10 -14 0 -32 48 -26 67 4 14 3 15 -4 5 -7 -10 -16 3 -35 50 -14
35 -53 124 -87 198 -130 284 -387 931 -475 1198 -20 62 -39 111 -41 109 -14
-14 386 -1090 481 -1293 15 -33 42 -95 60 -139 18 -44 76 -170 129 -279 53
-110 95 -203 94 -208 -4 -12 -211 411 -286 587 -53 122 -100 236 -252 612 -58
144 -42 83 24 -93 126 -331 239 -602 335 -804 54 -113 111 -232 126 -265 15
-33 44 -94 63 -135 20 -41 35 -83 34 -93 0 -9 3 -15 8 -12 6 4 7 -2 3 -11 -4
-12 -3 -15 5 -10 12 7 16 -5 13 -33 -2 -7 2 -10 8 -6 6 3 9 0 6 -7 -7 -17 84
-202 170 -348 83 -141 77 -130 72 -130 -7 0 -87 130 -153 250 -32 58 -64 111
-71 118 -7 7 -13 22 -13 33 0 23 -60 156 -198 439 -130 267 -182 381 -313 690
-60 140 -109 251 -109 247 0 -13 57 -177 85 -245 14 -34 23 -67 20 -72 -3 -5
-1 -18 5 -27 9 -16 10 -15 5 5 -9 33 1 27 14 -8 7 -22 7 -29 0 -24 -14 8 -4
-27 22 -78 11 -21 19 -45 19 -54 0 -9 7 -22 15 -28 18 -13 31 -81 13 -70 -6 4
-9 1 -6 -7 3 -8 11 -13 17 -11 7 1 10 -2 6 -8 -4 -6 16 -53 44 -105 28 -52 85
-178 126 -279 41 -102 88 -213 105 -246 16 -32 30 -63 30 -67 0 -20 -50 77
-117 232 -42 94 -120 262 -175 375 -131 267 -152 313 -265 575 -84 195 -133
299 -120 255 27 -88 179 -439 397 -913 45 -99 80 -181 77 -183 -4 -5 -317 617
-317 630 0 6 -91 191 -152 307 -13 26 -32 54 -42 64 -9 10 -14 25 -11 33 3 9
3 13 -1 9 -10 -10 -46 73 -39 90 2 8 1 12 -4 9 -4 -3 -25 36 -45 87 -20 51
-43 103 -52 117 l-15 25 7 -25 c11 -43 130 -353 183 -480 18 -41 39 -93 47
-115 13 -37 13 -38 -2 -20 -9 11 -33 54 -54 95 -21 41 -46 84 -55 95 -16 20
-16 19 -9 -5 3 -14 13 -38 21 -53 8 -16 12 -31 10 -33 -5 -6 -158 337 -229
514 -38 93 -49 132 -45 160 2 20 2 29 0 20 -7 -28 -18 -21 -32 20 -8 20 -39
98 -71 172 -31 74 -90 215 -130 312 -40 98 -75 177 -76 175 -2 -2 24 -73 57
-158 33 -84 101 -257 150 -384 226 -579 290 -736 368 -909 17 -38 30 -71 28
-73 -3 -2 -10 10 -17 27 -7 16 -16 30 -21 30 -5 0 -9 5 -9 11 0 6 -16 34 -35
63 -19 29 -35 56 -35 59 0 4 -26 59 -58 124 -32 65 -65 136 -74 159 -9 23 -44
97 -76 165 -33 68 -73 153 -89 189 -16 36 -42 78 -56 94 -15 16 -27 35 -27 42
0 8 -4 14 -10 14 -5 0 -7 8 -3 18 3 9 2 14 -2 9 -5 -4 -15 5 -22 20 -7 16 -17
35 -22 43 -5 8 -29 55 -52 105 -23 49 -44 84 -46 78 -4 -12 20 -82 71 -203 57
-135 138 -351 134 -355 -2 -2 -16 23 -32 55 -16 33 -33 57 -38 54 -11 -7 -1
-60 18 -101 17 -38 87 -203 148 -353 165 -402 499 -1070 705 -1409 45 -74 79
-136 77 -139 -14 -13 -370 560 -510 818 -52 96 -62 100 -15 6 52 -102 52 -104
28 -76 -11 14 -32 47 -46 73 -44 89 -33 43 13 -53 26 -52 47 -99 48 -105 1 -5
5 -15 8 -21 4 -6 5 -35 1 -63 -6 -50 -7 -52 -31 -46 -14 3 -32 14 -39 23 -7 9
-13 14 -13 10 0 -8 76 -154 93 -178 10 -13 9 -13 -5 0 -9 8 -51 74 -92 145
-41 72 -80 137 -85 145 -21 31 3 -25 41 -97 21 -39 38 -76 38 -82 0 -22 -17
-10 -32 22 -16 32 -16 31 -10 -35 2 -38 2 -68 -1 -68 -14 0 -203 320 -390 656
-105 191 -405 760 -512 974 -31 62 -58 110 -60 108 -5 -5 374 -750 513 -1008
251 -466 459 -814 693 -1162 66 -98 118 -178 115 -178 -4 0 -89 121 -213 300
-250 362 -639 1032 -988 1700 -206 394 -391 730 -402 730 -3 0 10 -26 28 -57
80 -142 415 -791 446 -864 10 -24 10 -26 -8 -22 -13 4 -19 0 -19 -11 0 -21 -5
-20 -43 7 -57 40 -65 53 -212 322 -109 199 -424 746 -438 760 -12 12 5 -19
175 -320 69 -121 158 -283 198 -360 40 -77 102 -193 137 -257 34 -64 63 -121
63 -125 0 -23 -138 203 -352 577 -177 309 -303 523 -344 585 -31 46 -34 48
-34 22 0 -15 19 -57 44 -95 99 -155 436 -755 436 -777 0 -4 24 -50 54 -104 57
-102 71 -141 66 -181 -1 -14 -3 -34 -4 -44 0 -11 -7 -21 -14 -22 -7 -1 -8 0
-2 3 17 8 11 26 -7 19 -10 -4 -14 -4 -10 0 4 4 0 12 -8 18 -8 6 -55 83 -105
171 -51 88 -96 165 -102 170 -6 6 3 -15 20 -45 71 -129 172 -322 172 -331 0
-4 -7 -6 -15 -3 -11 5 -15 -1 -15 -23 0 -22 -7 -33 -25 -41 -14 -6 -25 -19
-25 -28 0 -8 -6 -14 -12 -11 -7 2 -12 12 -10 22 2 11 -1 15 -9 9 -9 -5 -10 -2
-6 9 4 10 2 16 -5 14 -6 -1 -22 16 -35 38 -12 22 -27 39 -32 38 -5 -1 -8 5 -7
15 0 9 -4 17 -11 17 -6 0 -15 4 -20 9 -5 5 -2 6 6 1 9 -5 12 -3 9 6 -3 8 -12
13 -22 11 -19 -3 -22 14 -3 21 6 3 2 6 -10 6 -14 1 -24 11 -32 31 -5 17 -12
30 -15 30 -6 0 -1 -27 12 -60 14 -37 19 -152 7 -157 -6 -2 -48 59 -95 134
-114 187 -170 270 -170 254 0 -7 8 -25 19 -39 13 -20 201 -340 248 -424 2 -4
-3 -5 -11 -2 -9 3 -16 13 -16 21 0 8 -5 11 -10 8 -6 -3 -10 -16 -10 -28 0 -18
-2 -19 -11 -7 -8 12 -12 12 -16 2 -3 -7 -15 -23 -27 -35 -12 -12 -25 -30 -29
-40 -10 -25 -29 -10 -22 16 4 14 3 18 -3 9 -6 -9 -23 9 -58 60 -48 72 -49 72
-52 41 -3 -26 18 -67 109 -215 273 -445 520 -818 825 -1243 43 -60 82 -114 86
-120 76 -96 201 -252 235 -292 24 -28 40 -54 35 -57 -9 -5 -118 122 -252 294
-41 52 -97 122 -125 156 -90 109 -189 240 -342 449 -76 104 -330 482 -492 733
-41 62 -76 111 -78 108 -3 -3 8 -24 25 -48 16 -24 65 -101 109 -173 101 -165
289 -450 412 -625 150 -215 156 -223 144 -227 -8 -3 -7 -12 3 -31 14 -28 9
-68 -11 -89 -7 -7 -16 -9 -20 -5 -22 20 14 -31 68 -93 15 -18 27 -37 27 -43 0
-5 7 -15 16 -22 23 -20 174 -218 174 -229 0 -6 8 -15 17 -20 10 -6 14 -11 10
-11 -11 0 24 -42 114 -138 38 -41 69 -80 69 -88 0 -8 8 -14 18 -14 14 0 15 -2
2 -10 -11 -8 -22 -2 -44 22 -15 18 -40 47 -55 63 -15 17 -54 62 -86 100 -90
106 -107 125 -151 175 -86 95 -94 103 -94 95 0 -5 7 -17 17 -27 9 -10 12 -18
7 -18 -5 0 -30 25 -56 54 -47 53 -60 74 -36 60 15 -9 4 9 -35 59 -16 20 -33
34 -39 31 -5 -3 -19 2 -31 13 l-22 18 19 -22 c11 -13 14 -23 8 -23 -9 0 -8 -7
1 -27 6 -16 14 -30 17 -33 3 -3 12 -14 20 -26 42 -58 -103 106 -177 201 -98
125 -133 165 -145 165 -4 0 6 -19 23 -42 17 -24 36 -43 42 -43 7 0 13 -10 15
-22 2 -13 10 -23 18 -23 9 0 12 -5 8 -11 -3 -6 -3 -14 2 -18 5 -3 29 -33 54
-66 62 -82 203 -263 250 -321 5 -7 6 -14 3 -18 -3 -3 2 -8 11 -12 9 -3 16 -10
16 -14 0 -4 13 -22 30 -40 16 -18 27 -37 23 -43 -3 -5 -1 -7 5 -3 11 6 43 -28
284 -309 75 -88 167 -194 203 -235 37 -41 -1 -5 -84 80 -83 85 -151 161 -151
168 0 7 -4 11 -9 8 -12 -8 -163 151 -290 304 -58 69 -112 132 -120 141 -94 97
-317 372 -495 609 -92 123 -132 169 -134 156 -2 -10 9 -36 25 -57 202 -272
595 -766 764 -961 28 -32 47 -58 42 -58 -4 0 -34 25 -65 55 -31 30 -62 55 -67
55 -6 0 -16 9 -23 20 -15 24 -24 25 -32 5 -3 -8 7 -34 23 -57 25 -37 27 -44
14 -57 -13 -13 -19 -10 -46 20 -174 191 -396 440 -413 463 -18 24 -22 26 -27
12 -5 -11 -3 -15 5 -10 7 5 9 2 5 -9 -7 -17 15 -41 28 -29 5 4 5 1 1 -6 -4 -7
3 -26 18 -45 15 -17 30 -37 34 -42 5 -6 7 -16 4 -23 -2 -6 0 -12 5 -12 4 0 14
-10 21 -22 7 -13 -9 1 -35 31 -58 66 -123 134 -98 104 9 -12 15 -28 12 -36 -3
-7 8 -33 25 -58 24 -36 27 -45 14 -47 -12 -3 -8 -10 14 -29 22 -18 29 -31 24
-45 -4 -15 -2 -19 12 -16 9 2 19 -4 21 -12 4 -13 3 -13 -6 0 -6 8 -11 10 -11
4 0 -16 25 -35 35 -26 5 4 5 2 1 -5 -3 -7 0 -20 8 -30 8 -10 37 -46 65 -80 49
-60 62 -81 41 -68 -6 4 -7 -1 -3 -11 4 -11 8 -13 11 -6 5 17 19 15 26 -4 3 -8
2 -12 -4 -9 -23 14 -6 -13 52 -84 60 -73 101 -121 123 -145 34 -37 135 -157
135 -161 0 -10 -8 -4 -76 60 -67 63 -106 85 -85 48 6 -12 5 -20 -6 -28 -12 -9
-15 -32 -14 -103 1 -55 -3 -92 -9 -92 -5 0 -10 -7 -10 -15 0 -19 47 -103 74
-131 87 -91 114 -124 101 -124 -3 0 -30 24 -59 53 -124 120 -123 119 -130 94
-9 -35 -7 -40 17 -35 21 4 22 2 20 -76 -2 -76 0 -83 26 -111 27 -28 38 -65 19
-65 -8 0 -12 16 -9 33 1 5 -3 6 -8 3 -10 -6 -55 28 -106 80 -95 100 -409 392
-416 388 -4 -2 -11 1 -15 7 -5 8 -3 9 7 3 8 -4 3 6 -11 23 -14 18 -29 32 -34
32 -5 1 -1 -9 10 -21 17 -21 16 -21 -9 1 -27 24 -36 38 -17 26 18 -11 11 5
-13 31 l-24 25 -2 -68 -2 -69 71 -74 c55 -59 70 -81 70 -105 0 -21 13 -46 40
-79 37 -44 40 -53 40 -108 0 -49 -3 -59 -15 -55 -8 4 -17 3 -19 -2 -7 -11 149
-163 159 -154 4 4 5 3 2 -3 -7 -12 65 -83 258 -256 72 -63 139 -126 150 -139
13 -16 8 -13 -15 7 -19 17 -51 45 -70 61 -19 17 -91 79 -160 138 -69 60 -134
115 -145 124 -26 19 87 -93 195 -193 47 -43 78 -73 70 -68 -33 23 -46 -11 -26
-65 8 -21 17 -50 20 -65 4 -15 17 -38 31 -52 14 -14 25 -34 25 -46 0 -13 7
-20 20 -20 15 0 20 -7 20 -25 0 -16 -6 -25 -15 -25 -23 0 -18 -12 23 -57 48
-54 62 -71 62 -79 0 -8 52 -58 123 -118 32 -26 56 -50 53 -53 -2 -2 -31 16
-64 41 -66 50 -77 55 -64 29 5 -10 20 -40 33 -68 50 -103 92 -162 171 -237 45
-43 84 -78 88 -78 3 0 19 -13 35 -30 16 -16 34 -30 39 -30 6 0 25 -12 41 -28
89 -81 362 -275 462 -328 18 -10 33 -22 33 -27 0 -5 6 -7 14 -4 7 3 29 -7 48
-23 19 -15 48 -36 65 -47 17 -10 84 -50 150 -89 65 -40 172 -100 238 -134 66
-34 129 -69 140 -76 27 -19 34 -17 28 9 -3 13 2 8 14 -13 16 -31 46 -49 283
-167 387 -193 673 -319 980 -432 72 -26 91 -29 120 -21 19 5 44 7 55 4 18 -5
18 -3 -4 15 -13 12 -29 21 -35 21 -7 0 -13 7 -13 15 0 18 -2 18 33 0 38 -20
53 -19 91 4 40 25 136 123 174 178 l29 42 -29 15 c-15 8 -31 13 -34 10 -3 -3
-18 2 -34 11 -15 9 -20 14 -10 11 33 -10 17 4 -35 30 -29 15 -96 52 -148 84
-96 58 -322 183 -505 280 -213 112 -275 146 -410 223 -154 89 -313 191 -360
232 -29 25 -29 26 -2 9 15 -9 27 -12 27 -8 0 5 5 1 11 -8 5 -10 36 -35 67 -56
85 -58 380 -226 514 -293 64 -32 192 -101 285 -152 185 -103 243 -134 228
-120 -5 5 -45 38 -87 73 -80 64 -89 74 -63 64 24 -9 18 24 -7 45 -365 304
-671 603 -838 821 -310 402 -504 731 -544 921 -4 19 -46 59 -145 138 -154 123
-254 215 -245 224 3 3 65 -43 137 -102 144 -116 236 -185 241 -180 2 2 0 49
-3 104 -5 79 -9 100 -21 101 -50 3 -51 4 -48 30 4 35 31 53 55 38 14 -9 20
-32 26 -105 19 -235 14 -214 60 -246 23 -15 90 -62 149 -105 59 -42 147 -100
195 -129 48 -29 93 -57 98 -61 36 -30 182 -115 189 -110 5 3 6 0 2 -6 -4 -7
-3 -12 3 -12 6 0 34 -14 63 -31 29 -18 112 -62 185 -99 98 -51 134 -65 143
-56 9 8 11 8 8 -2 -3 -14 24 -32 99 -63 29 -11 50 -26 47 -32 -8 -25 40 -65
59 -49 9 8 34 0 91 -29 83 -42 116 -50 40 -10 -24 13 -44 28 -44 32 0 5 -6 9
-14 9 -17 0 -104 48 -112 62 -4 7 -2 8 4 4 7 -4 12 -1 12 10 0 13 -3 14 -14 5
-17 -14 -38 -5 -132 57 -32 21 -66 42 -74 45 -8 4 -35 23 -60 42 -25 19 -79
53 -120 76 -41 23 -83 49 -94 58 -10 9 -87 63 -171 121 -250 171 -413 290
-419 307 -4 11 4 8 32 -8 37 -23 114 -78 141 -101 8 -6 41 -30 75 -52 33 -22
63 -43 66 -46 3 -3 41 -28 85 -55 44 -27 94 -59 111 -72 17 -13 34 -23 38 -23
3 0 25 -11 49 -25 l42 -26 -30 25 c-16 14 -24 26 -17 26 7 0 10 5 6 12 -4 7
-3 8 5 4 6 -4 8 -12 5 -18 -5 -7 -2 -8 5 -3 8 4 23 -3 39 -18 15 -13 41 -33
57 -43 30 -18 30 -18 15 1 -10 12 -2 9 23 -9 20 -16 37 -32 37 -37 0 -5 7 -9
16 -9 9 0 23 -8 31 -17 9 -11 12 -12 7 -3 -6 12 -4 13 7 3 16 -16 33 -17 23
-2 -4 8 0 8 15 0 24 -13 28 -23 6 -15 -24 10 -8 -21 18 -34 47 -24 152 -84
157 -90 3 -4 19 -12 35 -19 90 -34 150 -64 148 -72 -3 -12 114 -64 127 -56 6
3 10 -1 10 -10 0 -20 -22 -14 -83 21 -23 13 -46 24 -52 24 -5 0 13 -13 40 -28
69 -37 107 -54 101 -43 -3 5 1 14 9 21 12 10 15 10 15 -2 0 -17 148 -90 538
-264 28 -13 52 -20 52 -15 0 5 -156 86 -347 181 -192 94 -395 200 -453 234
-58 35 -121 72 -140 82 -19 11 -91 54 -160 97 -69 43 -134 83 -145 90 -50 31
-494 350 -525 377 -19 17 1 5 45 -25 154 -108 481 -323 540 -355 33 -19 96
-57 140 -85 136 -88 313 -185 630 -343 274 -137 372 -180 405 -178 14 1 30 -4
35 -10 17 -19 183 -87 194 -80 6 4 11 2 11 -3 0 -6 11 -11 25 -11 14 0 25 -4
25 -10 0 -5 3 -9 8 -8 4 1 20 -4 35 -10 48 -20 67 -16 67 16 0 24 -7 32 -42
47 -106 46 -415 198 -500 245 -137 77 -428 263 -541 344 -198 144 -353 261
-387 294 -19 19 10 0 65 -43 55 -42 143 -106 195 -142 52 -37 134 -95 182
-129 97 -71 330 -218 488 -307 143 -82 516 -267 536 -267 2 0 4 34 4 75 l0 75
-51 28 c-115 62 -268 150 -310 179 -24 16 -95 60 -156 97 -62 37 -113 69 -113
72 0 6 63 -30 200 -115 138 -85 406 -231 424 -231 3 0 7 44 9 98 l3 97 2 -105
2 -105 145 -72 c79 -40 147 -73 150 -73 4 0 4 162 0 360 -4 245 -2 360 5 360
5 0 10 -9 10 -21 0 -16 4 -20 18 -15 16 6 16 5 0 -8 -17 -12 -18 -41 -18 -349
l0 -335 38 -15 37 -15 3 379 c1 208 6 379 10 379 4 0 7 -72 8 -160 0 -146 2
-161 19 -176 16 -12 16 -15 3 -10 -9 2 -19 -2 -22 -9 -3 -8 -5 -104 -6 -214 0
-199 0 -200 22 -206 13 -4 91 -39 173 -78 153 -72 209 -89 198 -60 -4 11 7 8
39 -11 58 -34 68 -33 33 4 -16 17 -23 30 -17 30 7 0 12 5 12 10 0 6 -9 10 -20
10 -11 0 -20 4 -20 9 0 15 40 0 69 -26 14 -14 44 -34 66 -44 l40 -20 -24 21
c-26 23 -8 28 24 6 11 -7 38 -16 60 -19 35 -5 38 -4 22 7 -16 13 -16 14 -1 20
10 4 21 1 25 -5 3 -6 29 -13 55 -14 62 -3 105 -15 99 -26 -3 -4 -17 -4 -31 1
-14 6 -30 8 -34 5 -5 -3 -27 -1 -49 4 -33 7 -41 6 -41 -5 0 -9 12 -14 34 -14
19 0 42 -3 52 -7 12 -4 15 -3 10 5 -10 17 10 15 28 -3 8 -8 25 -15 38 -15 13
0 30 -5 38 -10 11 -7 -1 -9 -40 -5 -43 3 -50 2 -31 -6 14 -5 42 -11 64 -14 41
-3 64 -15 31 -15 -16 0 -17 -2 -4 -10 11 -8 7 -9 -15 -5 l-30 6 30 -16 c17 -8
46 -21 65 -29 33 -14 33 -15 5 -9 -36 7 -102 9 -109 3 -2 -3 -2 -18 1 -33 4
-22 10 -27 24 -24 12 3 17 1 13 -5 -5 -7 2 -9 20 -4 18 4 25 3 21 -4 -3 -5 0
-10 8 -10 8 0 17 -9 20 -20 8 -31 48 -43 68 -20 16 18 18 18 82 -3 64 -21 66
-23 62 -52 -2 -16 -4 -31 -4 -32 -1 -1 -47 14 -103 33 -111 37 -160 44 -88 13
204 -90 222 -101 161 -96 -16 1 -27 5 -26 8 2 3 -35 18 -83 33 -48 16 -93 31
-99 33 -9 4 -12 -7 -11 -37 1 -34 6 -44 30 -56 15 -8 28 -17 28 -20 0 -2 -9 0
-19 6 -29 15 -41 12 -41 -10 0 -11 6 -20 13 -20 8 0 9 -2 1 -8 -12 -8 -23
-113 -24 -226 0 -38 -3 -66 -7 -63 -7 8 -6 266 1 335 5 43 0 48 -43 43 -7 -2
-10 2 -7 7 3 6 0 13 -6 16 -7 3 4 4 25 1 25 -4 37 -2 37 6 0 8 -19 10 -67 6
-42 -3 -58 -2 -43 3 14 4 44 8 68 9 23 1 42 5 42 10 0 4 -39 23 -87 41 -49 18
-118 48 -154 66 -63 31 -177 54 -163 33 3 -5 9 -7 14 -4 5 3 20 -18 34 -46 19
-37 26 -66 26 -109 0 -50 -4 -64 -33 -102 -19 -26 -53 -54 -86 -70 -30 -16
-47 -28 -38 -28 9 0 17 -4 17 -10 0 -5 -13 -10 -29 -10 -16 0 -31 -6 -35 -15
-3 -8 -2 -14 2 -13 4 1 20 -4 35 -10 16 -7 37 -12 47 -12 10 0 22 -4 25 -10 9
-14 8 -14 -138 22 -84 21 -122 34 -108 38 17 4 8 8 -33 18 -31 7 -61 10 -68 6
-7 -4 -8 -3 -4 4 4 7 2 12 -3 12 -6 0 -11 -7 -11 -16 0 -12 7 -15 25 -12 13 3
22 1 19 -3 -4 -8 105 -44 211 -70 27 -7 44 -14 38 -16 -7 -3 -73 12 -148 31
-74 20 -140 36 -145 36 -6 0 -10 -16 -10 -35 0 -31 5 -38 33 -50 l32 -14 -40
3 -40 4 3 49 4 50 -92 32 c-50 18 -94 30 -97 27 -3 -3 -12 2 -19 12 -12 15
-15 15 -24 2 -8 -13 -14 -8 -12 11 1 6 -237 110 -250 109 -5 0 -8 -157 -8
-348 l0 -348 242 -78 c133 -43 249 -80 257 -83 9 -2 0 5 -20 16 -132 74 -240
243 -264 418 -10 69 9 42 22 -32 40 -221 196 -385 433 -454 158 -46 446 -117
632 -156 190 -39 598 -115 622 -115 14 0 16 23 16 204 0 130 4 207 10 211 7 4
9 -63 6 -208 l-5 -215 82 -16 c184 -36 453 -85 725 -133 20 -4 32 -2 32 6 0 6
5 11 11 11 5 0 8 -4 4 -9 -8 -14 2 -18 105 -41 74 -16 96 -17 102 -7 6 9 11 8
19 -5 5 -10 18 -18 28 -18 9 0 26 -7 37 -15 18 -14 18 -14 0 -15 -10 0 -64 11
-120 24 -113 28 -491 101 -721 141 -177 30 -177 30 -235 44 -75 18 -71 24 -67
-106 l4 -118 29 -6 c56 -12 82 -10 87 9 4 13 5 11 6 -5 1 -16 7 -23 20 -23 17
0 20 10 25 72 3 40 8 89 9 108 2 19 5 -38 5 -127 l2 -162 38 -6 c126 -20 166
-25 250 -28 51 -3 94 -1 97 3 2 4 -71 26 -163 50 -92 23 -171 46 -177 52 -11
10 25 4 79 -13 36 -11 39 -11 31 1 -3 6 -2 10 4 10 5 0 14 -6 18 -13 7 -11
149 -53 276 -79 26 -6 47 -15 47 -19 0 -5 5 -9 11 -9 7 0 43 -9 80 -20 50 -15
69 -26 70 -38 0 -14 2 -14 9 3 7 17 9 16 9 -10 1 -16 5 -25 9 -20 8 12 253 14
245 3 -2 -5 1 -8 6 -8 6 0 11 5 11 10 0 6 8 10 18 10 13 0 14 -2 4 -9 -7 -4
60 -9 152 -10 l166 -2 2 23 c0 13 4 1 8 -27 6 -41 7 -31 8 52 2 73 -2 103 -10
107 -7 3 -4 5 7 3 18 -2 20 -12 25 -100 5 -90 6 -96 20 -77 11 16 25 20 66 20
43 0 53 -4 62 -22 l11 -23 0 22 c1 30 17 37 43 19 18 -13 19 -16 5 -16 -9 0
-17 -4 -17 -9 0 -4 27 -11 60 -14 33 -4 78 -16 99 -27 l39 -19 5 24 c2 14 1
25 -2 25 -4 0 -16 7 -27 15 -17 13 -16 14 14 4 l32 -11 2 -146 c1 -81 1 -175
0 -209 -2 -35 1 -64 7 -68 7 -4 11 14 11 52 0 32 3 109 7 170 l6 113 30 -5
c16 -3 48 -15 71 -26 22 -11 33 -14 24 -6 -10 8 -18 17 -18 20 0 8 59 -23 78
-41 8 -7 27 -19 43 -27 l29 -16 1 -147 c1 -81 5 -158 9 -172 5 -15 8 41 9 138
1 102 5 162 11 160 20 -6 186 -129 233 -170 l47 -43 7 -186 c4 -136 3 -188 -5
-193 -15 -9 -16 -52 -2 -61 14 -9 50 13 50 32 0 9 -7 21 -15 27 -13 9 -15 39
-13 188 l3 177 110 -95 c257 -223 533 -516 725 -769 92 -122 129 -164 83 -95
-171 253 -451 564 -770 854 l-153 138 0 145 c0 93 4 142 10 138 6 -3 10 -36
10 -72 0 -65 8 -83 12 -29 2 16 8 30 14 33 20 8 137 -59 219 -126 299 -242
630 -568 891 -876 151 -179 366 -485 514 -732 40 -68 74 -123 77 -123 11 0
-104 191 -242 400 -209 316 -363 509 -644 809 -102 109 -201 204 -431 415 -36
33 -71 69 -79 80 -11 16 -8 15 15 -5 203 -180 432 -374 374 -317 -81 79 -287
270 -335 311 -27 23 -28 25 -7 20 12 -3 20 -8 17 -11 -3 -3 24 -18 59 -33 36
-15 89 -43 119 -62 29 -19 63 -38 74 -41 12 -4 33 -16 47 -27 39 -31 159 -89
184 -89 12 0 49 -11 82 -24 32 -13 60 -20 62 -16 4 12 202 -165 364 -325 73
-72 128 -122 123 -112 -6 10 -103 111 -217 224 -113 113 -195 200 -182 192 14
-8 35 -23 48 -34 13 -11 27 -19 30 -19 4 1 21 -4 37 -11 17 -7 50 -21 75 -30
25 -9 60 -24 78 -33 39 -18 41 -19 105 -30 47 -9 47 -9 30 12 -63 72 201 -171
345 -319 97 -99 161 -161 143 -137 -19 24 -103 114 -187 201 -84 87 -150 162
-146 166 4 5 2 5 -5 1 -6 -3 -21 7 -33 24 -12 16 -16 30 -10 30 6 0 -6 15 -27
33 -79 68 -116 107 -109 114 6 6 29 -12 133 -111 28 -26 56 -46 61 -42 6 3 14
1 18 -5 5 -8 2 -10 -7 -5 -8 4 11 -14 41 -40 30 -26 118 -109 195 -183 77 -75
129 -123 115 -106 -43 51 -161 176 -263 276 -73 73 -96 102 -91 116 5 15 4 15
-5 3 -6 -8 -11 -12 -12 -7 -1 4 -2 10 -3 15 -3 18 -18 32 -28 26 -6 -4 -8 -3
-5 3 9 15 -39 57 -54 48 -8 -6 -10 -4 -5 4 5 8 -7 25 -31 46 -21 19 -33 34
-27 35 5 0 23 -14 39 -30 16 -17 35 -28 43 -25 7 2 11 1 8 -4 -3 -5 20 -31 52
-58 75 -65 100 -78 37 -19 -28 27 -49 54 -47 63 2 11 -1 14 -12 10 -10 -4 -16
-1 -16 8 0 8 -4 15 -10 15 -5 0 -15 10 -21 23 -10 19 -8 19 18 -5 16 -16 32
-28 35 -28 12 0 2 30 -18 52 -28 34 -144 139 -183 168 -19 14 -46 34 -60 46
-14 11 -47 35 -73 53 -26 17 -47 37 -45 43 1 7 -7 14 -18 16 -11 2 -24 9 -30
14 -7 8 -5 9 5 3 8 -4 2 4 -15 18 -16 14 -32 21 -35 17 -3 -5 -14 -2 -24 6
-17 12 -17 14 -3 20 16 6 59 -21 237 -145 36 -24 83 -61 106 -80 23 -20 76
-63 119 -96 43 -33 85 -68 94 -78 9 -10 37 -33 62 -52 26 -18 77 -59 113 -90
36 -30 66 -51 66 -46 0 10 33 -19 194 -171 44 -42 82 -75 84 -73 3 3 -262 265
-281 277 -6 4 -8 10 -4 14 4 4 13 -1 21 -11 7 -10 18 -15 24 -11 7 4 12 1 12
-6 0 -7 16 -26 35 -41 19 -15 35 -24 35 -20 0 15 -188 190 -355 332 -23 19
-31 30 -20 26 25 -8 17 0 -55 53 -108 80 -165 125 -168 134 -2 4 -7 6 -12 3
-4 -3 -13 2 -20 10 -7 8 -18 15 -25 15 -21 0 -119 70 -127 91 -4 10 -5 19 -3
19 2 0 35 -16 72 -37 37 -20 64 -32 58 -26 -15 16 -149 88 -142 77 3 -6 2 -15
-2 -22 -5 -9 -19 -4 -49 18 -23 16 -46 30 -50 30 -4 0 -17 7 -28 15 -17 13
-16 14 13 4 71 -23 52 0 -38 48 -216 115 -581 272 -587 253 -3 -9 -10 -7 -21
8 -15 19 -72 41 -360 140 -58 20 -100 37 -95 39 6 2 108 -30 227 -70 119 -41
219 -72 222 -69 3 3 6 73 7 156 l2 151 5 -157 c3 -86 8 -159 11 -161 3 -3 82
-38 175 -77 203 -86 426 -192 515 -245 212 -125 340 -192 364 -190 23 3 30 -4
28 -26 -1 -3 14 -4 31 -1 25 3 29 1 17 -8 -12 -8 -9 -9 13 -4 17 4 27 2 27 -5
0 -6 11 -11 25 -11 20 0 25 5 26 28 0 24 1 25 9 7 5 -12 9 34 9 124 1 157 12
185 18 44 6 -164 15 -259 23 -238 7 20 7 20 14 -1 9 -30 76 -64 125 -64 42 0
121 -32 121 -50 0 -5 7 -7 15 -4 9 4 15 0 15 -8 0 -22 50 -42 64 -27 8 9 8 10
-1 5 -8 -5 -13 -1 -13 10 0 16 -33 50 -94 97 -16 12 -47 39 -70 59 l-41 37 55
-4 c52 -3 110 -26 155 -60 11 -8 40 -31 63 -50 24 -19 46 -35 49 -35 21 0
-147 139 -263 218 -39 26 30 -10 84 -44 29 -19 57 -34 62 -34 5 0 35 -21 67
-48 87 -71 134 -105 139 -99 2 2 -11 15 -31 28 -19 13 -33 29 -32 34 2 6 -3
16 -12 23 -13 11 -13 12 -1 6 23 -11 107 -72 191 -139 42 -33 95 -73 118 -88
160 -110 497 -404 880 -767 168 -160 219 -213 476 -499 219 -245 251 -273 79
-70 -282 331 -548 607 -839 868 -93 85 -204 186 -245 225 -223 214 -775 626
-1135 846 -210 129 -722 400 -754 400 -5 0 -13 4 -16 10 -4 6 4 6 22 -1 45
-17 319 -153 433 -215 58 -31 143 -77 190 -102 47 -25 87 -49 88 -54 2 -4 7
-6 11 -4 4 3 20 -6 35 -19 16 -14 33 -22 37 -19 5 3 9 0 9 -6 0 -6 5 -8 10 -5
6 4 32 -6 57 -21 26 -15 70 -39 97 -54 130 -68 493 -315 706 -479 130 -100
650 -534 785 -656 66 -59 174 -159 240 -223 66 -64 176 -170 245 -237 l125
-120 -125 129 c-119 123 -349 350 -455 451 -43 41 -45 43 -10 17 22 -16 112
-99 200 -183 206 -197 242 -226 93 -74 -65 66 -119 124 -120 130 -3 10 -82 79
-205 178 -67 55 -131 124 -126 139 1 3 -5 12 -15 20 -15 12 -16 11 -3 -5 12
-15 11 -17 -5 -14 -32 5 -46 17 -35 31 8 9 3 19 -17 37 l-27 24 25 -29 c46
-53 2 -22 -162 114 -160 133 -207 174 -181 156 8 -5 16 -7 19 -4 5 6 -82 78
-213 177 -82 61 -97 76 -68 65 8 -4 15 -4 15 -1 0 7 -98 77 -118 85 -10 3 -66
38 -127 77 -60 39 -136 86 -167 104 -56 31 -75 47 -43 35 26 -11 16 4 -19 25
-43 27 -58 27 -26 0 l25 -21 -25 14 c-14 8 -46 27 -72 42 -27 15 -48 30 -48
33 0 3 21 -7 46 -22 25 -15 48 -25 51 -22 2 3 -16 17 -41 32 -25 15 -46 29
-46 31 0 6 34 -12 106 -58 35 -21 68 -36 77 -32 8 3 18 1 22 -5 4 -7 -1 -9
-12 -5 -16 5 -16 4 1 -10 23 -19 40 -21 30 -4 -4 7 -3 8 5 4 6 -4 9 -11 6 -16
-6 -10 24 -22 36 -14 5 3 8 0 7 -7 -2 -8 7 -14 20 -15 26 -2 35 -9 38 -29 1
-8 -4 -11 -12 -8 -26 10 -14 -5 20 -26 40 -25 43 -25 43 -6 0 8 -7 14 -15 13
-8 -2 -16 5 -18 15 -2 17 -1 17 19 3 12 -9 40 -26 62 -37 79 -43 165 -101 160
-109 -3 -4 8 -16 23 -26 24 -15 25 -15 13 -1 -23 29 -4 19 89 -43 85 -57 111
-80 74 -66 -14 5 -15 4 -4 -9 17 -20 0 -19 -30 2 -24 16 -24 16 -11 0 19 -23
1 -21 -29 4 -16 14 -19 19 -7 15 27 -9 20 -1 -24 29 -23 15 -38 21 -34 15 5
-8 3 -11 -4 -9 -7 3 -11 7 -9 11 4 9 -33 48 -46 48 -6 0 0 -9 13 -19 14 -11
19 -20 12 -22 -6 -2 28 -32 76 -66 49 -34 136 -101 196 -148 59 -47 107 -83
107 -80 0 2 -54 48 -120 101 -67 53 -118 99 -116 101 3 3 36 -16 73 -41 62
-42 55 -30 -10 19 -19 14 -25 24 -18 33 23 36 578 -415 1036 -843 91 -85 81
-69 -15 25 -143 139 -523 482 -625 564 -153 124 -400 301 -551 397 -83 53
-141 95 -137 102 3 6 1 7 -5 3 -14 -8 -37 3 -90 46 -52 42 -122 84 -134 80 -5
-1 -7 2 -3 8 6 9 -7 14 -27 11 -5 0 -8 3 -8 9 0 5 -36 30 -80 56 -78 44 -102
64 -81 64 6 0 11 -4 11 -8 0 -5 6 -9 13 -9 6 0 36 -14 65 -32 29 -17 55 -31
58 -31 3 0 20 -9 37 -21 l32 -21 -30 26 c-16 14 -33 26 -38 26 -4 0 -24 11
-45 23 -127 81 -606 329 -616 320 -3 -3 -6 -2 -6 4 0 5 -33 25 -72 43 -40 19
-120 56 -178 83 -138 65 -199 89 -211 82 -5 -4 -9 -2 -9 3 0 15 -296 132 -550
218 -106 36 -114 38 -185 49 -22 3 -157 37 -300 75 -143 38 -293 77 -334 87
-41 9 -69 19 -63 21 5 1 61 -9 124 -23 344 -80 330 -78 339 -64 7 11 9 10 9
-3 0 -12 21 -21 88 -37 134 -31 170 -35 187 -21 8 7 15 9 15 5 0 -5 10 0 23
11 20 17 20 16 -2 -9 -14 -15 -23 -28 -20 -30 2 -2 93 -34 202 -71 202 -68
430 -153 502 -187 22 -10 105 -44 185 -75 80 -30 255 -110 390 -177 239 -120
290 -143 240 -113 -30 18 -21 21 14 5 14 -7 23 -16 19 -22 -3 -6 -1 -7 5 -3
12 7 201 -88 214 -108 4 -6 8 -8 8 -3 0 4 9 -2 21 -14 11 -11 27 -18 35 -15 9
3 12 1 9 -4 -6 -9 8 -14 28 -11 4 0 7 -3 7 -9 0 -5 18 -19 40 -30 45 -23 54
-25 44 -8 -4 7 -3 8 5 4 6 -4 9 -11 6 -15 -2 -5 37 -34 88 -65 50 -31 102 -64
115 -73 12 -8 22 -13 22 -9 0 4 -31 27 -70 52 -38 25 -70 47 -70 50 0 6 117
-68 148 -94 15 -13 20 -20 12 -16 -13 7 -13 5 -1 -9 15 -18 26 -23 16 -7 -3 6
-2 10 3 10 11 0 30 -21 30 -33 0 -5 4 -12 8 -15 4 -4 4 -1 -1 7 -5 9 -3 12 6
9 8 -3 14 -10 14 -15 0 -6 4 -15 9 -20 5 -4 6 -3 3 3 -9 15 20 27 29 12 4 -7
3 -8 -4 -4 -25 15 -10 -1 21 -24 l32 -23 -20 23 -20 23 27 -18 c15 -9 26 -21
23 -25 -3 -5 0 -12 6 -16 8 -5 9 -3 4 6 -5 8 -3 11 6 8 8 -3 14 -10 14 -16 0
-5 4 -14 9 -19 5 -5 6 -2 1 6 -5 9 -3 12 6 9 8 -3 14 -10 14 -16 0 -6 7 -17
15 -24 12 -11 12 -11 1 5 -7 9 -11 17 -7 17 15 0 395 -263 391 -271 -3 -4 12
-20 32 -35 21 -15 65 -48 98 -72 33 -25 51 -35 41 -24 -11 12 -16 22 -11 22
14 0 85 -62 80 -70 -3 -4 17 -25 43 -46 26 -21 38 -28 28 -16 -11 12 -16 22
-12 22 10 0 322 -246 381 -300 28 -26 88 -78 135 -117 47 -38 133 -116 193
-172 59 -57 107 -101 107 -97 0 12 -293 284 -460 427 -36 31 -180 145 -320
254 -140 109 -255 201 -255 205 0 5 -13 18 -28 30 -49 38 -20 34 33 -5 27 -20
50 -35 50 -32 0 2 -31 28 -70 58 -73 55 -80 62 -55 53 30 -12 14 5 -35 36 -52
33 -63 44 -32 33 15 -6 16 -5 2 12 -15 18 -14 18 13 1 30 -20 35 -29 12 -20
-31 12 -13 -6 32 -33 25 -15 41 -29 34 -31 -13 -4 18 -31 59 -51 l25 -12 -25
20 c-44 36 -7 22 63 -24 89 -58 87 -57 87 -51 0 3 -51 40 -112 82 -110 74
-118 96 -10 27 29 -19 56 -33 58 -30 2 2 -39 32 -91 67 -53 35 -98 67 -102 73
-3 5 6 1 21 -8 15 -10 29 -15 32 -12 3 2 -21 21 -53 41 -31 20 -53 36 -47 36
5 0 50 -25 98 -55 48 -30 92 -53 97 -49 5 3 8 0 7 -8 -2 -8 4 -12 16 -10 12 2
16 -1 10 -9 -4 -8 -3 -10 5 -5 6 4 18 2 26 -4 8 -7 15 -8 15 -3 0 6 -20 21
-45 34 -25 13 -45 27 -45 31 0 5 -9 8 -20 8 -10 0 -23 7 -27 15 -5 8 -58 52
-119 97 -163 121 -178 134 -91 77 43 -28 81 -48 84 -45 3 3 18 -3 33 -14 16
-11 32 -20 36 -20 4 0 16 -8 26 -17 17 -16 18 -15 15 5 -2 12 -12 29 -23 37
-30 22 -42 17 -14 -6 l25 -21 -25 15 c-14 8 -24 20 -23 25 1 6 -42 41 -97 78
-55 37 -100 69 -100 71 0 5 56 -28 116 -68 22 -15 49 -27 59 -26 11 1 20 -4
20 -11 0 -12 35 -40 88 -68 39 -21 34 -10 -8 16 -19 12 -34 26 -32 32 1 6 -5
13 -13 15 -13 4 -13 3 0 -7 12 -9 12 -11 1 -8 -8 2 -15 11 -17 20 -1 13 11 10
64 -14 36 -16 76 -37 89 -45 12 -8 23 -13 23 -10 0 3 -17 15 -37 28 -21 12
-60 36 -88 54 -27 17 -59 35 -69 39 -10 3 -17 9 -14 11 3 3 49 -15 104 -40
115 -53 100 -35 -28 30 -48 25 -88 48 -88 50 0 14 322 -152 370 -190 17 -14
136 -78 163 -88 26 -10 20 0 -10 16 -16 7 -80 44 -143 81 -112 66 -155 96
-117 83 24 -9 21 0 -4 14 -15 8 -19 8 -15 0 11 -17 -2 -13 -50 15 -56 33 -57
41 -1 13 72 -36 27 -4 -98 70 -130 76 -164 98 -125 80 51 -24 268 -149 370
-212 58 -36 125 -78 149 -93 24 -14 121 -77 215 -139 161 -105 214 -138 226
-140 3 0 21 -9 40 -18 52 -26 17 -2 -140 98 -78 50 -208 133 -288 186 -166
108 -332 208 -440 264 -84 44 -91 57 -11 21 30 -13 61 -26 69 -30 8 -3 25 -13
37 -21 16 -12 23 -13 29 -4 4 8 3 9 -4 5 -7 -4 -12 -3 -12 1 0 5 -9 13 -20 18
-11 6 -52 27 -92 47 -165 83 -312 148 -337 148 -24 -1 -24 -2 -9 -14 16 -12
15 -13 -10 -13 -15 0 -36 -3 -47 -8 l-20 -8 20 16 c20 16 19 16 -9 17 -24 0
-26 2 -16 14 6 8 21 16 33 18 18 3 12 9 -28 27 -27 13 -102 48 -165 78 -214
102 -563 254 -754 329 -230 90 -265 105 -260 119 2 5 0 24 -5 40 -9 29 -9 28
-10 -15 -1 -39 -3 -43 -15 -28 -7 10 -15 16 -18 13 -5 -6 -145 42 -168 57 -12
7 -10 8 8 5 18 -4 22 -1 22 21 0 14 -2 23 -5 20 -10 -10 -80 20 -77 33 2 7 -4
9 -13 5 -18 -7 -145 33 -145 45 0 5 12 4 27 -2 14 -5 32 -8 40 -5 8 3 13 -2
13 -12 0 -12 3 -13 8 -5 6 10 23 8 72 -7 81 -25 80 -25 80 5 0 14 5 25 10 25
6 0 10 -13 10 -29 0 -25 5 -30 42 -39 53 -14 62 -8 14 8 -20 6 -36 16 -36 21
0 13 19 11 73 -5 25 -7 48 -11 51 -8 4 3 6 1 6 -4 0 -5 10 -11 23 -12 31 -2
389 -121 527 -175 134 -52 433 -175 505 -208 28 -13 52 -23 55 -24 3 0 12 -5
20 -10 8 -5 64 -33 124 -61 88 -41 116 -50 140 -44 44 10 60 2 39 -18 -15 -16
-15 -17 3 -20 17 -2 109 -40 191 -79 21 -10 34 -25 38 -43 5 -21 24 -37 93
-75 285 -159 932 -574 1179 -756 51 -38 99 -67 105 -63 6 4 8 3 5 -3 -4 -6 9
-23 27 -37 38 -28 51 -33 40 -13 -4 7 -3 9 2 4 5 -5 9 -14 9 -20 0 -7 8 -11
18 -11 9 1 14 -2 11 -7 -3 -5 8 -17 23 -26 16 -10 61 -44 101 -76 39 -32 76
-56 82 -52 15 9 61 -23 271 -190 97 -77 207 -164 245 -193 38 -28 74 -57 81
-62 7 -6 16 -10 20 -10 4 0 -17 26 -47 57 -30 32 -41 46 -25 32 17 -14 91 -77
165 -139 145 -122 259 -224 434 -388 90 -84 111 -100 119 -87 5 10 4 22 -5 33
-21 26 -137 150 -209 222 -37 37 -68 71 -70 77 -4 8 -100 94 -374 334 -109 94
-261 219 -480 390 -77 61 -149 118 -160 128 -19 16 -215 154 -465 327 -141 97
-428 275 -630 391 -91 52 -169 100 -175 106 -5 5 6 1 25 -10 19 -11 82 -46
140 -78 229 -125 586 -342 643 -390 9 -8 17 -12 17 -10 0 3 6 1 13 -4 6 -6
102 -70 212 -142 110 -73 202 -135 205 -139 3 -4 19 -14 37 -23 17 -9 37 -22
45 -29 50 -47 99 -77 115 -72 15 5 15 4 3 -5 -12 -8 -11 -11 5 -17 11 -4 33
-20 49 -36 22 -21 33 -25 43 -17 20 17 17 23 -42 65 -30 21 -55 42 -55 47 0 4
-7 7 -15 7 -8 0 -15 4 -15 10 0 5 -6 9 -12 7 -7 -1 -12 4 -11 11 3 11 -9 16
-29 14 -11 -2 -29 26 -21 31 4 3 67 -38 139 -91 72 -54 196 -145 275 -203 161
-119 413 -319 594 -472 193 -165 518 -456 543 -488 13 -16 31 -29 41 -29 16 0
-134 155 -274 283 -27 25 -75 69 -106 99 -30 29 -91 84 -135 122 -43 38 -88
78 -99 89 l-20 19 20 -10 c11 -6 47 -33 80 -62 33 -28 85 -73 115 -99 30 -26
111 -96 180 -155 144 -125 233 -203 274 -240 15 -15 31 -25 33 -22 7 6 -110
121 -222 219 -44 39 -141 128 -215 198 -74 70 -161 148 -192 173 -32 26 -58
49 -58 52 0 7 41 -23 160 -114 52 -40 79 -59 60 -41 -62 56 -104 94 -158 142
-55 49 -60 59 -14 30 l27 -17 -20 24 c-12 14 -14 20 -5 15 16 -9 284 -214 310
-237 9 -8 34 -27 55 -43 22 -17 43 -34 47 -40 4 -5 10 -6 14 -3 8 8 -31 48
-148 152 -48 43 -85 83 -81 89 3 5 2 7 -4 4 -5 -4 -23 7 -38 23 -30 31 -28 38
6 19 11 -5 16 -15 13 -21 -4 -7 -2 -8 5 -4 6 4 18 3 25 -3 7 -6 20 -10 27 -8
8 2 10 2 6 -1 -4 -2 -2 -11 5 -20 11 -14 10 -15 -7 -8 -15 5 -17 4 -8 -4 8 -9
16 -9 30 -1 10 6 13 11 5 11 -7 0 -11 4 -7 10 9 14 55 -7 92 -42 18 -18 35
-29 38 -26 3 3 -6 13 -20 22 -14 9 -23 22 -19 28 4 6 3 9 -2 6 -5 -3 -17 3
-26 14 -23 24 -11 23 32 -3 34 -20 34 -19 -8 18 -23 21 -42 43 -42 49 0 7 -17
26 -37 44 -21 17 -47 39 -58 49 -11 9 -40 32 -65 51 -95 72 -285 224 -295 234
-5 6 -29 24 -52 40 -24 16 -43 31 -43 33 0 5 58 -29 104 -61 16 -11 36 -20 45
-21 25 -2 62 -30 53 -41 -4 -4 1 -2 10 5 15 11 21 10 44 -8 15 -12 31 -21 36
-21 6 0 -8 15 -30 32 -51 41 -54 54 -4 26 35 -21 36 -21 19 -2 -22 27 -10 39
17 17 12 -9 3 2 -19 25 -22 22 -45 41 -52 42 -6 0 -13 3 -15 8 -1 4 -37 32
-78 61 -129 92 -103 84 46 -14 78 -51 156 -99 169 -104 6 -2 -5 10 -22 27 -18
17 -33 36 -33 41 0 6 -4 11 -9 11 -6 0 -25 14 -43 31 -18 16 -62 49 -98 73
-62 42 -162 113 -187 136 -7 5 -15 10 -18 10 -6 0 -79 49 -110 73 -5 4 -31 23
-57 41 -26 18 -44 36 -41 40 4 4 0 4 -8 1 -8 -3 -28 4 -43 16 -32 25 -28 38 6
15 12 -9 31 -16 41 -16 20 0 120 -48 125 -61 4 -9 147 -79 162 -79 6 0 9 -3 7
-8 -3 -4 12 -15 34 -24 21 -9 39 -15 39 -14 0 11 -255 176 -271 176 -5 0 -9 4
-9 8 0 5 -70 51 -155 103 -205 124 -226 136 -254 149 -44 20 -81 51 -75 63 4
7 4 9 -1 5 -4 -4 -22 0 -39 9 -17 9 -26 18 -19 20 7 2 21 0 32 -6 27 -15 31
-14 31 9 0 12 -12 26 -32 36 -17 9 -49 29 -71 45 -22 16 -48 29 -57 29 -24 0
-32 11 -19 26 8 10 5 16 -15 25 -14 7 -26 16 -26 20 0 9 59 -10 111 -36 l34
-16 -25 21 c-14 11 -42 30 -62 41 -21 10 -38 24 -38 29 0 5 -8 11 -18 14 -10
4 -28 15 -39 25 -31 29 -162 93 -175 85 -6 -4 -8 -3 -4 4 5 9 -19 23 -44 27
-3 0 -11 4 -17 8 -7 5 -18 5 -25 1 -6 -4 -8 -3 -4 4 4 6 -20 19 -61 32 -38 12
-72 25 -78 30 -8 6 -65 27 -100 37 -40 11 -133 47 -144 56 -11 9 -13 9 -8 0 9
-14 -60 2 -80 19 -7 6 -13 8 -13 5 0 -5 -151 46 -270 92 -55 21 -92 41 -78 41
8 0 257 -90 308 -111 15 -7 21 -7 15 -1 -5 6 -48 24 -95 42 -205 76 -356 138
-339 139 4 1 25 -6 48 -14 23 -8 49 -11 58 -8 12 5 14 3 8 -7 -6 -10 -2 -12
18 -8 15 3 24 1 21 -4 -3 -5 6 -7 19 -4 15 3 27 -1 30 -8 3 -8 17 -11 34 -9
17 3 84 -15 173 -46 81 -29 154 -48 165 -45 17 4 18 3 5 -6 -12 -10 -11 -11 9
-6 14 3 93 -17 195 -50 356 -114 437 -139 491 -149 37 -7 22 1 -90 45 -80 31
-115 46 -190 80 -22 11 -47 21 -55 24 -8 4 -3 4 13 2 54 -7 25 10 -83 48 -60
21 -110 40 -110 43 0 7 62 -8 90 -22 32 -16 111 -30 90 -16 -23 16 -4 24 22
10 12 -7 30 -14 38 -15 24 -2 111 -34 152 -55 49 -25 58 -24 58 5 0 29 26 40
73 31 32 -6 32 -6 7 8 -14 7 -105 42 -202 77 -179 65 -239 95 -86 44 76 -25
99 -31 136 -33 7 -1 10 -6 6 -12 -4 -8 1 -9 16 -4 15 5 20 4 16 -4 -4 -7 1
-12 13 -12 28 -2 34 -3 46 -10 6 -4 88 -32 183 -63 95 -32 205 -71 245 -87 40
-17 101 -41 137 -54 36 -13 127 -48 203 -79 76 -31 143 -53 149 -50 6 4 16 1
22 -7 12 -15 51 -39 63 -39 4 0 -2 7 -13 16 -19 15 -19 16 1 9 58 -20 74 -27
74 -33 -3 -19 2 -25 10 -13 7 11 13 11 37 -1 16 -8 28 -20 26 -27 -1 -7 2 -9
8 -6 15 9 62 -3 55 -15 -3 -5 0 -12 6 -16 8 -4 9 -3 5 4 -13 22 14 13 142 -47
70 -32 152 -68 182 -81 30 -12 72 -29 93 -38 20 -8 40 -12 44 -9 9 10 14 7
-152 91 -82 42 -139 74 -125 71 34 -8 -60 40 -136 69 -33 13 -85 37 -115 54
-30 16 -104 51 -166 77 -62 27 -110 52 -108 56 3 4 -5 5 -17 2 -19 -4 -21 -3
-8 7 13 10 12 11 -3 6 -10 -3 -39 5 -65 19 -26 14 -50 25 -55 25 -4 0 -92 33
-195 74 -103 40 -212 83 -242 94 -30 11 -53 24 -50 28 3 5 -13 12 -35 16 -22
3 -85 23 -140 43 -55 20 -143 49 -195 65 -184 54 -307 99 -275 100 29 2 29 2
5 9 -14 5 -39 6 -56 3 -19 -2 -35 1 -39 8 -6 10 -2 12 13 8 12 -4 20 -2 17 3
-3 4 -18 8 -33 8 -39 0 -92 12 -92 21 0 4 -10 8 -22 8 -13 0 -86 19 -163 41
-317 93 -1106 278 -1307 307 -34 4 -48 11 -50 23 0 9 -2 21 -2 28 -3 28 -16
23 -16 -5 0 -34 -10 -38 -57 -26 -33 9 -30 42 5 47 l27 4 -27 2 c-31 1 -38 17
-10 24 16 4 16 5 0 6 -13 1 -18 10 -18 33 0 17 -3 29 -6 25 -3 -3 -6 -35 -6
-71 0 -62 -1 -66 -22 -61 -45 9 -185 35 -276 50 -52 9 -98 22 -102 28 -5 8 -8
8 -8 1 0 -10 -101 4 -360 50 -47 8 -122 20 -168 27 -87 12 -113 26 -107 59 2
11 0 22 -6 25 -5 4 -9 -10 -9 -29 0 -20 -4 -36 -10 -36 -10 0 -14 13 -11 42 1
9 -3 19 -9 23 -6 4 -10 -6 -10 -25 0 -27 -3 -31 -17 -25 -10 4 -25 9 -34 12
-14 4 -17 22 -18 110 0 58 -3 108 -6 111 -3 3 -5 -45 -5 -106 0 -62 -3 -112
-7 -112 -5 0 -46 7 -93 15 -47 9 -107 18 -135 20 -58 6 -190 23 -222 31 -23 4
-23 3 -23 -95 l0 -98 53 -8 c42 -6 48 -9 32 -16 -14 -6 -7 -8 25 -4 30 3 37 2
20 -3 -21 -7 -15 -10 40 -21 36 -8 72 -18 80 -23 10 -6 7 -7 -10 -3 -34 6
-190 43 -217 51 -22 6 -22 3 -26 -82 l-3 -89 -2 85 -2 85 -32 17 c-18 10 -40
19 -48 20 -8 2 -17 6 -20 10 -3 3 -14 8 -25 10 -11 1 -26 9 -34 16 -7 7 -20
11 -28 8 -8 -4 -11 -1 -8 5 4 6 1 9 -6 7 -17 -3 -79 24 -79 34 0 5 -5 8 -10 8
-6 0 -45 20 -88 45 -76 45 -99 54 -87 35 4 -6 -1 -7 -12 -3 -32 11 -35 15 -22
25 14 10 2 7 -36 -8 -9 -4 -15 -3 -13 2 3 10 -5 14 -24 14 -7 -1 -2 -10 11
-20 25 -21 46 -27 36 -10 -3 6 -2 10 4 10 20 0 21 -19 1 -25 -14 -5 -32 3 -60
25 -22 17 -40 34 -40 37 0 3 7 0 15 -7 11 -9 19 -10 26 -3 7 7 2 12 -15 17
-14 3 -26 11 -26 16 0 6 -4 10 -10 10 -5 0 -10 -9 -10 -19 0 -19 -1 -19 -37
-1 -130 65 -235 90 -370 90 -105 0 -281 -26 -333 -48 -14 -6 -73 -23 -132 -39
-75 -19 -108 -33 -109 -43 0 -9 -3 -10 -5 -4 -4 9 -25 6 -77 -7 -120 -31 -404
-55 -423 -36 -4 4 28 7 72 7 105 0 273 24 357 50 64 20 67 22 67 51 l0 31
-147 -7 c-129 -6 -232 -19 -338 -40 -16 -3 -33 -11 -36 -17 -4 -6 -11 -8 -15
-5 -5 3 -34 -1 -64 -8 -44 -11 -49 -13 -23 -14 17 -1 35 -6 39 -12 4 -7 -7
-10 -34 -8 -23 2 -44 0 -48 -4 -4 -4 -13 -2 -21 4 -18 15 -95 13 -108 -3 -5
-7 -16 -14 -24 -16 -11 -2 -12 0 -3 11 10 12 8 13 -13 10 -13 -3 -23 -10 -22
-17 1 -6 -5 -10 -14 -9 -8 2 -63 -3 -121 -11 -97 -13 -114 -12 -209 6 -128 23
-185 32 -226 32 -17 1 -29 4 -27 8 4 6 -13 11 -86 23 l-35 6 4 -293 c4 -322 5
-333 64 -369 39 -24 161 -62 199 -62 16 0 28 -3 28 -7 0 -9 119 -32 130 -25 6
3 10 -1 10 -9 0 -19 1 -19 -80 -2 -150 31 -271 71 -307 100 -56 46 -63 75 -63
249 l0 155 -31 6 c-49 10 -57 8 -62 -16 -4 -20 -4 -20 -6 -3 -1 19 -9 20 -164
21 -138 1 -655 42 -754 60 -25 5 -32 2 -36 -13 -4 -14 -5 -15 -6 -2 -1 20 -30
29 -98 29 -62 0 -136 -23 -181 -57 -17 -13 -32 -20 -32 -15 0 18 40 45 99 66
l60 22 -131 23 c-239 42 -578 124 -566 137 3 2 56 -9 119 -25 465 -121 1090
-203 1525 -200 115 0 221 -2 237 -6 l27 -7 0 67 0 68 -50 -6 c-45 -5 -50 -4
-50 13 0 17 7 20 51 20 51 0 51 0 45 27 -4 16 -8 35 -10 43 -2 9 -20 18 -47
22 -61 10 -90 16 -119 27 -14 5 -67 19 -119 31 -51 12 -154 41 -229 66 -75 24
-142 42 -150 39 -7 -2 -11 -1 -8 4 3 4 -29 18 -72 31 -42 12 -81 26 -87 30 -5
4 -22 10 -37 14 -16 3 -28 11 -28 17 0 7 7 8 18 4 9 -4 71 -24 137 -45 385
-122 479 -148 559 -154 28 -2 65 -9 83 -14 18 -6 41 -8 52 -5 11 3 36 -4 55
-16 43 -27 294 -78 421 -86 59 -4 117 -1 167 8 42 7 82 10 90 6 7 -4 29 -4 48
1 l35 8 -30 2 c-16 1 -39 3 -50 6 -11 2 -85 11 -164 19 -207 21 -241 26 -241
37 0 5 3 7 8 5 7 -5 51 -9 242 -23 142 -10 170 -10 170 -2 0 4 -8 8 -17 9
-142 8 -253 29 -154 29 35 0 44 4 48 21 4 14 8 17 13 9 5 -8 19 -10 39 -5 36
8 41 24 9 27 -45 3 -174 19 -203 24 -11 2 -81 11 -157 19 -75 8 -159 19 -185
24 -26 5 -55 10 -63 10 -8 0 -44 7 -79 16 -81 20 -100 13 -38 -15 27 -12 47
-24 44 -26 -8 -8 -97 30 -97 41 0 15 -33 30 -87 43 -34 8 -43 7 -43 -4 0 -7 8
-18 18 -24 14 -8 12 -9 -10 -4 -39 9 -57 -6 -27 -21 20 -11 14 -12 -44 -8 -53
5 -67 3 -67 -8 0 -11 -2 -12 -9 -1 -12 20 -84 34 -93 19 -6 -9 -8 -8 -8 3 0
11 -2 12 -8 3 -5 -7 -17 -10 -32 -6 -22 6 -23 7 -4 15 14 6 10 7 -13 4 -28 -5
-93 14 -183 51 -8 3 -18 5 -22 5 -5 -1 -8 3 -8 9 0 6 -6 9 -12 7 -7 -3 -19 2
-27 9 -7 8 -19 12 -27 9 -14 -6 -40 21 -30 31 4 4 16 2 26 -5 25 -16 30 -15
30 3 0 12 5 12 41 0 52 -19 74 -18 34 1 -30 14 -30 14 15 7 25 -3 47 -7 49 -9
9 -8 -54 -24 -73 -19 -17 5 -18 4 -6 -4 8 -6 27 -11 41 -11 15 0 45 -7 68 -15
22 -8 41 -10 41 -5 0 4 -6 11 -12 13 -7 3 5 3 27 0 32 -4 37 -2 25 7 -13 10
-12 11 3 6 21 -7 69 3 63 13 -2 3 0 15 5 26 6 16 8 11 10 -20 1 -25 3 -31 6
-17 2 12 8 20 13 17 4 -3 25 2 45 11 37 15 37 15 19 37 l-19 22 22 -19 c13
-11 31 -16 43 -13 29 8 25 -2 -7 -14 -16 -6 -23 -13 -17 -16 19 -7 82 37 88
62 3 13 17 37 31 53 l25 30 -67 22 c-38 12 -75 31 -85 41 -9 10 -22 19 -30 19
-10 0 -10 2 1 9 14 9 71 5 101 -6 8 -4 18 -5 23 -5 12 3 8 -16 -5 -21 -7 -3 3
-4 22 -1 25 3 29 2 16 -4 -19 -8 -18 -9 5 -15 36 -10 37 -9 31 19 -4 21 -9 24
-27 20 -13 -3 -25 -2 -27 2 -2 4 -19 15 -38 25 l-35 17 50 -5 c37 -3 43 -2 25
4 -14 5 -47 9 -73 10 -26 1 -67 9 -90 20 -35 15 -107 32 -252 57 -11 2 -29 10
-40 18 -19 14 -17 14 15 6 56 -14 173 -27 194 -22 20 5 20 5 0 13 -10 4 -32 8
-47 8 -16 1 -43 7 -60 15 -18 8 -39 17 -47 19 -36 12 22 6 76 -8 63 -16 67
-16 54 4 -7 12 -127 38 -310 67 -19 4 -40 10 -47 16 -6 5 -55 11 -108 13 -90
3 -140 13 -84 16 13 1 -9 5 -50 10 -79 9 -111 4 -43 -7 28 -4 42 -12 45 -26 3
-10 11 -18 19 -17 7 1 31 -6 53 -16 22 -10 82 -30 133 -46 98 -28 110 -34 98
-46 -4 -4 -21 0 -39 9 -18 9 -97 33 -177 53 -123 31 -242 63 -299 81 -8 2 -11
7 -8 10 3 3 33 -2 68 -10 69 -18 91 -16 29 3 -24 7 -38 16 -34 23 4 6 -1 8
-14 4 -14 -5 -28 0 -41 13 -12 12 -31 21 -43 21 -21 0 -21 0 -2 -16 17 -14 17
-15 1 -10 -10 3 -26 6 -35 7 -12 0 -13 2 -4 6 10 4 9 8 -3 17 -14 10 -4 12 52
12 124 1 147 4 138 13 -6 6 -35 12 -65 14 l-55 3 63 2 c34 1 62 7 62 12 0 6
19 10 43 11 36 0 39 2 19 10 -13 5 -20 13 -17 19 4 6 -6 10 -22 10 -22 0 -25
2 -13 10 11 7 6 10 -20 10 -26 0 -31 -3 -20 -10 13 -8 13 -10 -2 -10 -9 0 -18
5 -20 11 -2 7 -17 7 -48 0 -56 -13 -150 -14 -150 -2 0 10 144 28 188 24 26 -2
29 12 5 26 -14 8 -8 9 25 5 27 -4 42 -3 42 4 0 6 24 16 53 22 96 20 277 88
277 105 0 3 -21 -4 -47 -14 -27 -10 -54 -16 -62 -13 -9 3 -11 0 -6 -7 4 -8 2
-11 -6 -10 -8 1 -34 -3 -58 -10 -23 -7 -49 -10 -57 -7 -8 3 -14 1 -14 -3 0 -8
-56 -22 -147 -38 -18 -3 -30 -9 -27 -14 3 -5 -2 -9 -10 -9 -9 0 -16 4 -16 9 0
9 -85 19 -197 24 -29 1 -53 5 -53 10 0 4 -12 7 -26 7 -14 0 -22 4 -19 10 3 6
-1 7 -9 4 -9 -3 -16 -10 -16 -15 0 -5 -5 -9 -11 -9 -5 0 -7 5 -4 10 5 8 -15
13 -41 9 -4 0 -10 5 -15 12 -4 8 -11 10 -15 6 -10 -10 28 -38 44 -32 6 2 12
-2 12 -9 0 -8 12 -19 28 -24 l27 -10 -28 -1 c-16 -1 -42 8 -58 20 -20 14 -29
16 -29 7 0 -7 -10 -1 -23 13 -32 38 -74 62 -80 46 -3 -7 -6 -5 -6 5 -1 9 -13
21 -28 26 -16 5 -36 13 -45 17 -12 5 -18 0 -21 -17 -3 -18 -5 -16 -6 9 -1 25
-7 33 -33 43 -18 7 -28 14 -21 17 7 2 21 -1 32 -7 21 -11 21 -10 21 191 -1
111 1 204 4 207 4 3 6 -90 6 -206 l0 -212 48 -22 c26 -12 59 -30 75 -40 15
-11 27 -16 27 -12 0 3 7 1 15 -6 12 -10 15 -10 15 0 0 7 -8 19 -17 27 -17 14
-17 14 0 9 16 -5 17 7 18 142 1 81 1 164 0 185 -2 21 2 37 8 37 8 0 11 -61 11
-192 l0 -193 33 1 c17 1 45 2 60 3 16 0 26 5 22 11 -3 6 1 10 9 10 10 0 13 -6
10 -15 -4 -9 0 -15 10 -15 9 0 16 8 16 20 0 11 5 20 11 20 5 0 7 -4 4 -10 -3
-5 -1 -10 4 -10 6 0 11 4 11 9 0 5 14 17 31 25 24 12 36 13 53 4 l21 -11 -20
23 -20 23 22 -12 c34 -18 83 -13 148 15 71 31 172 64 188 63 7 0 0 -5 -16 -11
-15 -5 -24 -14 -21 -20 4 -6 -1 -8 -15 -3 -11 3 -29 2 -38 -4 -10 -6 -13 -11
-8 -11 6 0 -9 -10 -33 -21 -93 -46 -4 -24 133 34 33 14 83 34 110 46 51 21 36
29 -22 12 -18 -5 -35 -6 -38 -1 -5 8 54 37 68 32 5 -1 6 2 3 7 -3 5 -16 7 -29
5 -12 -2 -16 -2 -9 2 6 3 10 9 7 14 -3 4 4 6 15 3 12 -3 20 0 20 6 0 7 -5 9
-12 5 -8 -5 -9 -2 -5 9 4 10 1 17 -5 17 -6 0 -8 3 -5 7 4 3 16 -2 26 -11 11
-10 25 -15 32 -10 7 4 10 3 5 -4 -3 -6 -1 -14 5 -18 8 -4 9 -3 5 4 -4 6 2 20
14 32 11 11 20 22 20 25 0 3 0 10 0 17 0 6 10 3 21 -8 16 -14 21 -15 17 -4 -3
9 4 20 16 27 12 7 15 12 9 13 -7 0 -13 8 -13 18 0 9 -4 13 -8 7 -7 -10 -48
-35 -57 -35 -3 0 -5 5 -5 11 0 5 4 8 9 4 5 -3 12 4 16 15 3 11 11 20 16 20 6
0 7 5 4 10 -3 6 -2 10 4 10 6 0 8 7 5 15 -4 8 -13 15 -21 15 -8 0 -11 -4 -8
-10 3 -5 0 -7 -8 -5 -7 3 -22 -3 -32 -15 -24 -27 -27 -26 -69 16 -35 35 -35
35 -16 56 25 28 10 50 -30 43 -19 -3 -32 1 -41 13 -13 15 -12 16 3 4 24 -19
31 2 8 23 -12 10 -20 13 -20 7 0 -7 -9 -12 -20 -12 -20 0 -28 16 -11 22 5 2 3
12 -4 22 -13 17 -17 17 -31 5 -13 -11 -18 -11 -21 -1 -3 6 -11 12 -19 12 -8 0
-16 15 -20 39 -7 45 -18 56 -155 159 l-95 71 -59 -15 c-33 -8 -77 -20 -99 -25
l-38 -10 23 -26 c13 -14 72 -66 132 -115 98 -82 115 -98 103 -98 -3 0 -64 50
-138 111 -152 126 -131 122 -275 53 -76 -35 -93 -48 -94 -66 -1 -17 -2 -19 -6
-5 -2 9 -6 17 -8 17 -13 0 -95 -45 -95 -52 0 -4 -7 -8 -15 -8 -9 0 -34 -9 -56
-21 -23 -11 -43 -18 -45 -16 -3 2 44 28 103 58 106 53 123 69 109 105 -4 12
-13 10 -51 -8 -38 -19 -45 -27 -46 -52 -1 -24 -3 -26 -6 -8 -2 12 -7 22 -10
22 -8 0 -141 -73 -203 -111 -28 -17 -53 -29 -55 -27 -3 2 21 19 53 37 31 19
68 42 82 52 14 10 49 29 78 43 46 22 52 29 52 55 0 16 -4 33 -10 36 -5 3 -10
1 -10 -5 0 -6 -4 -8 -10 -5 -5 3 -10 1 -10 -4 0 -6 -3 -10 -7 -10 -26 4 -43
-3 -43 -18 0 -9 -3 -14 -6 -10 -7 7 -75 -25 -95 -46 -8 -7 -35 -25 -62 -40
-26 -16 -45 -31 -43 -36 3 -4 1 -13 -5 -21 -7 -12 -9 -12 -9 3 0 17 -1 17 -27
-1 -80 -56 -263 -140 -263 -121 0 5 6 9 13 9 17 0 195 90 237 120 44 31 30 36
-15 6 -70 -48 -240 -124 -312 -140 -90 -20 -153 -20 -228 -1 -62 17 -165 60
-165 70 0 3 18 -4 39 -14 21 -11 76 -30 122 -42 74 -19 93 -21 163 -11 43 5
82 15 85 21 4 6 45 24 90 41 92 33 191 80 191 91 0 4 11 10 24 13 13 3 32 9
42 13 12 4 15 3 10 -5 -4 -7 -2 -12 4 -12 7 0 14 8 17 18 2 10 30 31 61 46 68
34 204 116 214 131 13 17 9 105 -4 105 -9 0 -9 3 0 12 8 8 12 46 12 105 l0 93
-55 57 c-30 31 -55 59 -55 62 0 3 -17 25 -38 50 -21 25 -53 66 -71 91 l-33 45
33 -35 c19 -19 51 -55 72 -80 l37 -45 -5 65 c-3 43 -1 60 5 50 5 -8 10 -40 10
-70 0 -51 4 -60 47 -112 26 -31 49 -55 51 -54 1 2 0 50 -4 108 l-7 104 -33 22
c-19 12 -34 30 -34 40 0 12 9 8 30 -18 25 -29 31 -32 40 -20 5 8 10 13 11 10
2 -9 7 -62 14 -147 4 -46 11 -83 16 -83 5 0 4 -8 -3 -19 -9 -15 -7 -24 9 -47
12 -16 30 -38 42 -48 l21 -19 0 138 0 137 -31 39 c-17 22 -27 44 -23 50 4 7 3
9 -3 6 -6 -4 -16 0 -23 9 -11 12 -15 12 -23 2 -6 -10 -7 -8 -3 4 3 11 -8 33
-29 59 -42 49 -45 61 -8 28 24 -20 25 -21 9 -2 -10 12 -16 27 -14 34 2 7 36
-32 76 -87 48 -65 72 -92 73 -79 0 11 3 33 5 48 4 22 -5 42 -40 90 -63 86 -64
87 -89 87 -26 0 -50 -14 -46 -26 4 -14 -33 -17 -41 -4 -6 10 -22 9 -71 -4 -83
-21 -88 -13 -7 13 34 11 54 20 42 20 -19 1 -181 -43 -189 -51 -2 -2 9 -19 25
-38 40 -47 28 -52 -14 -5 -34 37 -36 37 -68 25 -41 -17 -205 -102 -279 -147
-65 -38 -66 -38 -66 -17 0 16 58 56 255 178 89 56 232 116 272 116 11 0 20 2
20 4 0 3 -23 43 -51 90 l-51 86 -29 -21 c-35 -25 -36 -33 -4 -71 14 -17 33
-44 41 -62 17 -35 7 -24 -44 49 -38 54 -43 53 -94 -26 -17 -27 -33 -47 -35
-45 -9 8 46 83 100 137 l56 55 -41 62 c-49 75 -70 72 -27 -3 39 -69 32 -72 -9
-5 -37 60 -30 62 -167 -40 -172 -128 -482 -423 -623 -593 -157 -189 -217 -283
-252 -390 -6 -21 -14 -36 -17 -33 -6 6 30 104 61 167 l23 45 -27 27 -27 27
-27 -40 c-37 -56 -43 -50 -10 10 l28 51 -45 47 c-24 26 -30 34 -12 18 17 -15
35 -28 40 -27 4 1 8 -3 8 -8 0 -23 14 -20 33 6 33 47 139 264 162 333 28 84
45 276 32 351 -6 30 -8 56 -6 58 13 13 19 -24 22 -142 6 -194 -28 -312 -154
-534 -38 -68 -49 -94 -40 -103 8 -8 6 -9 -9 -4 -18 7 -19 6 -6 -10 14 -16 16
-16 36 6 33 37 104 155 176 294 57 111 74 195 67 344 -3 58 -2 92 2 75 14 -56
11 -238 -5 -300 -23 -87 -82 -205 -170 -338 -43 -65 -75 -121 -71 -124 8 -8 2
-15 121 137 147 189 496 526 723 700 l33 25 -31 49 c-17 26 -29 50 -27 52 2 2
16 -19 33 -46 16 -27 31 -50 34 -50 3 0 15 8 27 18 l22 17 -49 79 -49 79 -11
-29 c-6 -16 -13 -35 -16 -43 -3 -10 -8 -11 -15 -4 -7 7 -4 21 10 44 12 19 21
39 21 46 0 6 -23 48 -51 93 -121 196 -373 727 -494 1040 -74 194 -155 431
-155 455 0 18 -2 18 -35 3 -31 -14 -33 -26 -2 -23 12 1 14 0 5 -2 -10 -2 -18
-10 -18 -18 0 -7 27 -94 60 -191 32 -98 58 -180 56 -182 -4 -3 -11 15 -94 255
l-49 143 -78 -54 c-115 -79 -235 -185 -235 -208 0 -10 -4 -17 -9 -14 -29 19
-305 -379 -283 -407 11 -15 43 -97 37 -97 -2 0 -13 21 -25 47 -17 38 -23 45
-31 33 -8 -11 -9 -8 -5 12 15 67 224 371 316 458 135 129 300 259 348 274 12
4 22 14 22 23 0 21 -14 14 -134 -66 -67 -45 -145 -111 -222 -188 -81 -80 -106
-101 -81 -68 43 59 31 47 137 141 47 41 120 101 163 131 53 39 76 61 73 72 -3
9 -7 27 -9 41 -2 16 0 13 6 -7 8 -24 15 -32 31 -29 25 4 31 22 18 49 -6 12
-22 57 -37 100 -20 60 -25 90 -21 135 6 72 6 71 16 47 7 -16 9 -14 10 15 0 19
9 50 19 69 l18 33 41 -117 c45 -126 52 -172 26 -182 -8 -3 -20 -17 -25 -30 -5
-13 -13 -21 -19 -18 -5 3 -10 0 -10 -9 0 -8 -3 -21 -6 -30 -4 -11 -1 -16 10
-16 9 0 16 -7 16 -15 0 -8 4 -15 9 -15 4 0 6 11 3 25 -3 17 4 34 22 56 l26 31
14 -34 c7 -18 16 -41 19 -50 11 -30 30 -21 24 11 -3 15 -3 41 1 56 7 25 9 23
21 -25 15 -57 34 -56 34 2 l0 33 10 -37 c6 -21 14 -38 19 -38 19 0 20 37 5
124 -27 151 -27 160 -12 186 8 15 14 19 14 10 1 -8 -3 -21 -8 -29 -5 -7 -6
-23 -3 -35 6 -20 6 -20 12 4 5 20 8 14 14 -30 5 -30 13 -60 18 -67 5 -6 11
-32 12 -58 2 -25 6 -49 10 -52 14 -15 4 61 -25 178 l-31 127 22 43 c19 41 32
82 64 214 7 28 15 57 18 65 7 16 41 165 83 360 15 69 47 184 71 257 24 72 44
135 44 140 -2 41 -88 -221 -129 -392 -89 -374 -124 -511 -132 -520 -5 -5 -9
-17 -9 -27 0 -10 -4 -18 -10 -18 -5 0 -10 -8 -10 -19 0 -10 -7 -24 -15 -31
-10 -9 -15 -9 -15 -1 0 6 4 11 10 11 5 0 7 7 4 15 -4 8 -10 12 -15 9 -5 -3 -9
0 -9 6 0 6 -4 8 -10 5 -9 -5 -15 15 -11 38 0 4 -12 46 -29 94 -31 88 -37 118
-21 109 8 -5 -4 83 -13 92 -5 4 -36 -64 -36 -79 0 -4 -5 -11 -12 -15 -14 -9
-4 94 12 110 5 5 10 18 10 27 0 9 7 22 15 29 12 10 15 9 15 -8 0 -28 10 -53
20 -47 9 6 1 53 -11 61 -5 3 -9 17 -9 31 0 25 114 321 170 441 17 35 30 71 30
81 0 10 6 24 14 30 15 13 30 60 22 69 -5 4 -86 -153 -99 -194 -4 -11 -11 -26
-16 -34 -5 -8 -19 -42 -31 -75 -12 -33 -26 -69 -30 -80 -4 -11 -18 -49 -31
-85 -12 -36 -27 -74 -33 -85 -5 -11 -20 -47 -32 -80 -11 -33 -42 -116 -68
-185 -25 -69 -58 -156 -73 -195 -14 -38 -32 -85 -40 -103 -12 -25 -13 -41 -5
-73 11 -45 7 -69 -13 -69 -9 0 -17 28 -24 83 -10 67 -9 96 4 162 8 44 20 106
25 139 11 61 135 436 148 445 4 4 7 24 8 46 1 27 25 94 73 200 40 88 75 166
78 173 3 8 -4 12 -24 12 -27 0 -31 -6 -68 -92 -21 -51 -52 -122 -68 -158 l-30
-65 -17 40 c-11 26 -19 35 -22 25 -3 -8 -4 -7 -2 4 1 10 -1 28 -6 41 -6 17 -1
38 21 85 16 34 29 66 29 72 0 5 7 17 16 25 13 13 13 17 2 24 -23 15 -28 10
-65 -66 -19 -41 -36 -75 -38 -75 -1 0 -14 32 -29 70 -15 39 -31 70 -36 70 -4
0 -18 -28 -30 -62 -12 -35 -33 -87 -46 -116 -13 -29 -24 -57 -24 -62 0 -6 -4
-10 -10 -10 -5 0 -10 -6 -10 -12 0 -21 -21 -90 -26 -85 -7 6 19 111 29 118 5
4 4 23 -2 45 -14 49 -14 67 -1 59 6 -3 10 -17 10 -31 0 -29 17 -23 29 9 6 15
0 44 -15 87 -13 36 -24 65 -24 65 0 0 -144 0 -320 0 -176 0 -320 -2 -320 -5 0
-3 15 -45 33 -95 21 -60 31 -100 27 -120 -4 -24 -10 -12 -30 69 -21 81 -26 94
-31 70 -3 -16 -4 -51 -1 -79 l4 -50 -55 110 c-53 106 -73 134 -42 58 17 -41
18 -46 6 -39 -5 3 2 -37 16 -90 13 -53 22 -101 19 -108 -2 -6 -5 -1 -5 12 -1
12 -7 22 -15 22 -8 0 -22 30 -35 78 -42 146 -52 172 -67 172 -10 0 -14 -13
-14 -47 0 -27 -5 -55 -11 -63 -7 -11 -8 3 -4 48 l7 63 -118 -3 c-97 -2 -118
-6 -116 -17 16 -76 16 -77 -5 -58 -11 9 -29 17 -41 17 -18 0 -21 -5 -17 -22
58 -269 169 -706 226 -895 22 -76 43 -149 45 -163 6 -33 116 -386 164 -525 21
-60 72 -193 115 -295 93 -225 91 -218 78 -205 -20 20 -195 449 -244 600 -28
86 -53 155 -55 153 -1 -2 8 -43 21 -92 13 -49 20 -85 15 -80 -11 11 -50 164
-50 196 0 17 -3 19 -9 9 -5 -7 -6 -22 -3 -34 3 -11 1 -18 -4 -14 -6 3 -8 -9
-5 -31 l5 -37 6 30 c5 27 6 25 17 -25 20 -92 24 -128 14 -105 -9 19 -10 19
-10 -2 -1 -12 3 -32 8 -45 4 -13 11 -43 14 -68 7 -44 6 -44 -8 -20 l-16 25 7
-25 c29 -105 31 -162 2 -75 -11 33 -26 83 -34 110 l-13 50 6 -55 c4 -30 7 -74
8 -97 0 -22 3 -39 7 -37 3 2 5 -25 5 -60 -1 -35 1 -62 4 -60 3 2 6 -20 6 -49
0 -29 3 -63 7 -77 5 -18 5 -21 -3 -10 -19 27 -20 5 -2 -48 10 -28 21 -48 26
-44 4 4 3 -2 -2 -13 -8 -15 -4 -36 18 -90 41 -100 30 -103 -13 -4 -129 293
-160 370 -206 504 -78 230 -119 406 -152 664 -39 304 -50 467 -58 821 l-7 295
-27 3 -28 3 -2 -438z m2028 -3629 c-1 -8 -21 -27 -43 -42 -97 -64 -373 -327
-373 -355 0 -7 19 -27 43 -44 23 -17 62 -50 87 -73 25 -23 68 -57 95 -75 63
-42 105 -85 83 -85 -9 0 -40 22 -70 48 -29 27 -83 69 -119 95 -37 26 -74 58
-83 71 -8 13 -29 27 -46 31 -35 8 -49 -5 -112 -108 -21 -33 -38 -56 -38 -50 0
5 25 49 55 98 58 93 62 104 43 124 -11 10 -10 11 2 6 12 -4 16 7 18 57 2 35 7
81 12 103 6 30 8 13 6 -62 -2 -57 0 -103 4 -103 4 0 71 61 149 136 128 124
266 242 283 244 3 0 5 -7 4 -16z m2029 -1874 c-3 -5 4 -12 16 -15 17 -6 19 -9
8 -17 -11 -7 -9 -8 5 -4 10 4 25 1 34 -6 8 -7 27 -13 41 -14 14 -1 39 -5 55
-9 21 -6 27 -5 22 4 -12 19 4 12 36 -14 16 -14 36 -25 44 -25 8 0 14 -4 14
-10 0 -5 17 -7 39 -4 23 3 42 1 46 -5 4 -7 -4 -11 -19 -11 -14 0 -27 -4 -30
-9 -4 -5 -19 -6 -39 0 -29 8 -170 37 -207 43 -56 9 -78 19 -83 37 -3 11 1 23
10 28 11 6 12 10 4 15 -6 4 -11 14 -11 22 0 8 5 12 10 9 6 -4 8 -10 5 -15z
m2475 -930 c47 -5 216 -14 375 -20 274 -9 432 -26 473 -49 9 -6 13 -11 7 -11
-5 0 -3 -5 5 -11 12 -9 11 -10 -5 -4 -70 24 -195 38 -355 39 -168 1 -181 -1
-305 -33 -157 -40 -215 -47 -303 -31 -66 11 -265 61 -260 65 2 1 17 5 33 9 20
4 25 3 16 -3 -21 -14 83 -33 149 -27 40 4 47 3 25 -3 -27 -8 -26 -9 18 -10 41
-1 49 2 57 22 5 12 9 16 9 9 2 -39 43 -42 161 -13 31 8 32 9 8 10 -14 1 -28 6
-30 13 -5 13 -19 16 -98 22 -30 2 -56 9 -58 14 -1 5 -13 7 -26 5 -13 -3 -27 0
-30 6 -9 14 22 14 134 1z m2285 -9 c33 -6 83 -13 110 -16 49 -6 134 -21 284
-51 77 -15 97 -17 90 -9 -5 4 -398 85 -414 85 -5 0 -6 2 -3 5 7 8 170 -20 331
-57 109 -25 137 -35 137 -48 0 -13 -7 -16 -27 -14 -26 4 -20 -1 16 -12 8 -2
12 -7 9 -9 -5 -5 -218 35 -318 60 -76 19 -291 65 -302 65 -5 0 -8 5 -8 11 0 6
8 8 18 5 9 -3 44 -10 77 -15z m204 -101 c326 -64 331 -66 331 -91 0 -19 -4
-20 -37 -14 -21 3 -59 13 -85 22 -26 8 -55 12 -64 9 -8 -3 -22 1 -30 9 -9 8
-21 15 -27 15 -7 0 -6 -4 3 -10 11 -7 11 -10 2 -10 -7 0 -23 6 -35 14 -12 8
-40 16 -62 20 -28 4 -34 3 -20 -4 15 -7 16 -9 4 -9 -33 -2 -81 12 -69 19 7 4
-32 15 -86 25 -55 9 -103 18 -108 19 -5 1 -11 12 -13 24 -2 19 1 21 20 17 12
-3 136 -28 276 -55z m546 -14 c94 -19 194 -37 224 -41 36 -5 49 -10 40 -16
-11 -7 -9 -9 6 -10 17 -1 16 -2 -5 -9 -23 -7 -23 -8 -3 -9 15 -1 21 -7 20 -21
-1 -12 -7 -18 -14 -16 -7 3 -55 13 -105 21 -88 16 -326 69 -358 81 -12 4 -12
7 -1 13 16 10 16 22 -1 32 -24 16 23 10 197 -25z m140 -146 c142 -38 158 -45
125 -55 -15 -5 -26 -3 -28 4 -2 6 -7 9 -12 6 -4 -2 -50 6 -101 19 -128 32
-171 38 -162 23 4 -7 -4 -4 -18 5 -15 9 -44 20 -65 23 -63 11 -72 15 -77 35
-9 34 -33 39 338 -60z m255 49 c41 -11 102 -27 135 -35 32 -8 62 -18 65 -22 3
-5 21 -14 40 -20 19 -6 24 -9 10 -6 -14 3 -72 7 -130 10 -58 2 -129 12 -157
21 -48 14 -53 19 -53 44 0 34 -4 34 90 8z m-1108 -219 c63 -13 531 -180 539
-193 4 -5 11 -7 17 -3 5 3 15 -1 22 -10 7 -8 19 -13 27 -10 7 3 13 1 13 -5 0
-6 4 -8 9 -5 12 8 138 -40 314 -118 81 -36 215 -93 299 -126 155 -62 192 -79
172 -80 -18 0 -360 140 -533 218 -95 43 -162 67 -174 64 -14 -3 -18 -1 -13 6
4 7 1 12 -6 13 -35 2 -71 13 -168 50 -270 105 -403 153 -505 180 -102 28 -157
49 -90 35 17 -3 51 -10 77 -16z m-2111 -369 c101 -35 462 -179 574 -228 51
-23 80 -32 83 -24 6 17 22 13 22 -6 1 -18 75 -58 210 -113 62 -25 246 -127
318 -175 27 -19 30 -24 16 -29 -19 -7 -65 19 -61 35 1 7 -4 14 -12 17 -9 3
-11 0 -5 -9 4 -7 -12 -1 -37 13 -24 15 -43 32 -41 39 2 7 -4 9 -12 6 -9 -4
-15 -1 -13 5 1 6 -4 13 -12 16 -9 3 -11 0 -6 -8 5 -9 4 -11 -4 -6 -6 4 -9 12
-6 17 4 5 -2 8 -12 7 -10 -1 -85 31 -166 71 -82 40 -155 70 -163 67 -8 -3 -14
0 -14 7 0 7 -28 24 -63 39 -411 176 -508 216 -602 249 -60 21 -103 38 -94 39
8 0 53 -13 100 -29z m-124 -471 c25 0 84 -26 94 -42 3 -5 10 -9 15 -9 19 2
104 -31 104 -40 0 -5 5 -9 11 -9 6 0 9 7 5 15 -3 8 -1 25 4 37 6 16 9 -26 9
-124 1 -82 -1 -148 -4 -148 -3 0 -35 25 -72 55 -38 30 -118 87 -180 127 l-112
73 -1 73 0 72 33 -13 c25 -10 33 -21 38 -48 5 -26 7 -18 9 36 l3 70 10 -62 c9
-57 12 -63 34 -63z"/>
<path d="M5770 10232 c0 -7 28 -47 61 -90 128 -162 314 -464 405 -657 82 -177
203 -483 248 -630 199 -655 205 -1398 16 -2053 -39 -134 -108 -319 -131 -353
-11 -15 -24 -50 -30 -78 -9 -44 -8 -54 8 -78 22 -32 63 -129 63 -149 0 -8 4
-14 8 -14 4 0 9 -12 10 -26 1 -14 5 -31 9 -37 10 -16 13 -38 22 -152 l8 -100
1 74 c2 65 4 72 17 61 11 -9 14 -22 9 -42 -5 -23 -1 -33 15 -44 28 -20 27 -34
-1 -27 l-23 6 22 -24 c22 -24 23 -76 1 -63 -6 4 -3 -5 6 -18 9 -14 13 -28 9
-33 -5 -4 -2 -5 5 0 9 4 27 -5 50 -26 l36 -34 -28 38 c-26 36 -17 53 13 25 8
-7 5 1 -5 17 -17 28 -17 29 -1 16 14 -11 21 -11 29 -3 17 17 38 15 38 -3 0 -8
-5 -15 -12 -15 -6 0 -4 -7 5 -18 19 -21 23 -42 5 -24 -16 16 -28 15 -28 -3 0
-8 10 -19 21 -26 12 -6 32 -23 44 -37 l22 -26 27 29 c14 17 24 38 22 48 -2 9
0 15 5 11 5 -3 19 2 31 10 12 9 19 16 15 16 -4 0 11 18 34 39 34 33 119 160
119 179 0 3 10 19 23 36 39 52 87 143 80 150 -4 4 -3 10 3 14 55 35 275 598
261 668 -2 14 0 27 4 30 5 3 9 24 8 47 0 23 -3 35 -6 27 -16 -47 -39 -87 -60
-103 -12 -10 -23 -24 -23 -31 0 -7 -14 -30 -30 -51 -17 -21 -33 -50 -37 -64
-9 -41 -17 -48 -23 -21 -4 14 -12 24 -18 23 -16 -4 -15 24 1 31 9 5 9 7 0 12
-9 4 -9 13 1 37 17 40 40 137 33 143 -2 3 -14 -22 -26 -56 -11 -33 -31 -87
-42 -120 -13 -37 -25 -57 -32 -53 -6 4 -30 6 -52 4 -49 -3 -63 -18 -115 -130
-31 -64 -43 -82 -56 -77 -8 3 -18 6 -20 6 -2 0 -4 9 -4 20 0 13 -7 20 -20 20
-13 0 -20 7 -20 19 0 13 -8 21 -22 23 -25 3 -27 30 -5 57 7 8 13 24 14 35 1
12 15 68 33 126 109 369 150 665 151 1109 1 279 -29 587 -75 771 -20 81 -19
47 4 -87 11 -65 19 -131 19 -148 -1 -19 -5 -9 -10 25 -44 269 -138 651 -170
684 -4 5 -2 -11 5 -35 8 -24 25 -83 40 -130 58 -191 120 -566 130 -794 4 -89
3 -99 -4 -50 -5 33 -11 84 -14 114 -3 30 -9 57 -12 60 -6 6 3 -154 13 -224 3
-22 2 -37 -1 -34 -4 4 -13 51 -21 105 -9 64 -13 77 -10 37 3 -38 1 -63 -5 -63
-6 0 -10 26 -10 58 0 31 -5 64 -11 72 -8 11 -9 5 -6 -25 3 -22 1 -49 -3 -60
-8 -17 -9 -16 -11 10 -3 39 -5 59 -24 195 -18 131 -60 326 -111 513 l-35 127
36 61 c38 64 79 174 72 193 -2 6 -9 -6 -16 -27 l-13 -39 -47 119 c-26 65 -53
127 -60 138 -16 25 -13 18 48 -138 28 -71 51 -135 51 -144 0 -8 -16 -44 -36
-80 l-37 -65 -68 182 c-66 176 -230 524 -304 645 -20 33 -53 89 -72 125 -19
36 -39 70 -45 75 -16 16 36 -84 119 -228 80 -140 177 -336 211 -427 11 -30 44
-120 72 -200 28 -80 56 -157 62 -172 6 -15 7 -35 4 -45 -10 -26 -29 0 -61 85
-15 39 -29 72 -32 72 -3 0 -3 -7 1 -15 3 -8 1 -15 -4 -15 -6 0 -10 4 -10 9 0
5 -3 17 -7 27 -4 12 -3 15 5 10 8 -5 10 -2 6 8 -3 9 -10 13 -15 11 -5 -3 -11
7 -15 22 -4 15 -11 34 -17 41 -5 7 -7 15 -3 19 3 3 0 13 -7 22 -8 9 -25 45
-39 81 -41 103 -187 398 -235 475 -25 39 -63 102 -86 141 -73 124 -200 294
-220 294 -16 0 -14 -6 13 -42 416 -559 698 -1247 779 -1904 60 -485 18 -1057
-106 -1439 -34 -107 -84 -237 -89 -233 -2 2 10 48 26 102 69 230 121 516 141
773 15 191 6 598 -16 763 -84 629 -383 1368 -746 1845 -95 124 -119 152 -119
137z"/>
<path d="M5350 10216 c0 -8 7 -21 15 -30 9 -8 14 -19 13 -23 -5 -16 75 -124
89 -119 7 3 13 0 13 -6 0 -6 33 -62 74 -123 254 -383 392 -663 512 -1042 47
-145 64 -181 64 -130 0 31 -90 304 -144 435 -102 251 -288 585 -432 777 -36
50 -69 97 -72 105 -6 16 -123 170 -129 170 -1 0 -3 -6 -3 -14z"/>
<path d="M7093 10223 c152 -261 240 -442 318 -660 161 -445 236 -850 265
-1418 4 -71 9 -125 11 -118 9 25 -17 444 -37 603 -52 406 -166 822 -317 1160
-76 169 -223 440 -240 440 -2 0 -2 -3 0 -7z"/>
<path d="M5316 9890 c4 -8 28 -44 54 -80 110 -150 282 -463 365 -665 64 -153
124 -341 180 -560 63 -247 72 -256 16 -17 -100 427 -267 819 -497 1162 -79
118 -135 194 -118 160z"/>
<path d="M6130 8676 c0 -14 11 -67 25 -118 37 -139 93 -435 112 -599 24 -203
23 -609 0 -779 -26 -184 -43 -268 -88 -440 -46 -173 -49 -191 -32 -197 32 -11
117 374 148 677 21 198 16 573 -9 770 -43 336 -156 831 -156 686z"/>
<path d="M4180 8667 c0 -9 -5 -17 -11 -17 -5 0 -7 5 -3 12 4 7 3 8 -4 4 -7 -4
-12 -18 -12 -31 0 -28 115 -376 139 -420 9 -16 16 -35 16 -41 0 -6 5 -18 11
-25 6 -8 41 -90 79 -184 71 -178 219 -499 242 -526 7 -8 13 -18 13 -21 0 -3
20 -43 44 -88 l43 -81 16 48 c9 27 19 57 23 68 5 13 4 16 -4 11 -7 -4 -12 -1
-12 8 0 31 -74 135 -87 122 -3 -2 7 -30 21 -62 24 -51 28 -55 44 -43 15 13 16
12 3 -3 -11 -15 -11 -23 -1 -48 7 -17 10 -33 7 -37 -4 -3 -11 5 -16 18 -16 44
-103 224 -109 229 -4 3 -8 12 -10 20 -2 8 -25 59 -53 113 -39 79 -239 564
-239 582 0 3 -13 34 -30 68 -16 35 -30 73 -30 83 1 18 1 18 11 1 6 -11 12 -24
13 -30 1 -7 4 -16 8 -22 3 -5 49 -118 101 -250 52 -132 109 -267 126 -300 17
-33 31 -66 31 -72 0 -7 4 -13 10 -13 5 0 9 -3 8 -7 -1 -5 13 -41 31 -80 26
-57 37 -71 47 -62 10 8 -1 37 -52 139 -35 71 -64 130 -64 133 0 2 -10 26 -22
53 -12 27 -23 54 -23 59 -1 6 -7 9 -15 7 -10 -2 -11 0 -3 10 8 9 7 21 -2 43
-7 17 -14 24 -14 17 -1 -7 4 -23 10 -35 7 -14 8 -18 1 -12 -10 9 -72 162 -72
175 1 3 7 -6 15 -20 17 -30 20 -21 4 14 -7 14 -15 23 -19 21 -4 -3 -8 5 -8 18
0 12 -30 103 -67 202 -36 99 -64 190 -62 202 2 12 1 20 -3 18 -4 -3 -11 7 -14
21 -4 15 -10 24 -13 21 -3 -3 8 -52 25 -109 17 -57 33 -112 36 -123 4 -11 -5
3 -18 30 -14 28 -25 59 -26 70 l-1 20 -8 -20 c-6 -15 -8 -10 -9 20 0 22 -10
58 -21 80 -12 21 -21 32 -21 22z"/>
<path d="M4057 8633 c-8 -14 82 -311 143 -471 32 -86 85 -215 116 -287 31 -71
69 -164 84 -206 15 -43 33 -85 40 -95 11 -18 11 -18 5 1 -23 66 -10 45 35 -55
28 -63 79 -171 113 -240 34 -69 67 -138 73 -155 11 -27 13 -28 20 -11 5 14 -2
36 -25 75 -35 61 -169 332 -195 395 -35 85 -11 43 60 -103 41 -85 77 -152 79
-149 3 3 -24 66 -61 139 -119 238 -273 606 -396 944 -32 87 -43 106 -34 60 l6
-30 -9 30 c-13 42 -35 149 -33 158 1 4 -2 7 -7 7 -6 0 -12 -3 -14 -7z"/>
<path d="M4016 8420 c22 -89 170 -477 233 -611 16 -35 66 -149 111 -254 101
-232 116 -263 226 -451 130 -224 178 -298 182 -286 2 6 -10 31 -26 55 -170
246 -464 858 -633 1317 -82 220 -105 278 -93 230z"/>
<path d="M5975 8320 c3 -19 14 -86 25 -150 54 -305 70 -797 36 -1048 -14 -106
-48 -289 -72 -388 -4 -20 -3 -26 4 -19 22 21 76 332 93 532 14 162 7 457 -16
680 -17 167 -49 369 -65 405 -9 20 -10 18 -5 -12z"/>
<path d="M4762 7276 l-22 -56 30 -49 c17 -26 30 -52 30 -56 0 -12 93 -169 102
-173 4 -2 8 -10 8 -17 0 -21 17 -27 41 -15 19 11 20 13 4 30 -9 10 -14 24 -10
30 3 6 1 9 -7 8 -7 -2 -12 5 -12 14 1 10 -2 16 -6 13 -4 -2 -17 14 -30 37 -14
26 -18 38 -9 34 10 -6 10 -4 -1 6 -8 7 -24 29 -34 48 -11 19 -33 59 -49 88
-16 29 -27 56 -24 58 3 3 8 -4 12 -15 3 -12 10 -21 15 -21 4 0 10 -10 14 -23
3 -12 13 -31 23 -42 20 -21 73 -109 73 -120 0 -3 -5 -3 -12 1 -7 4 -8 3 -4 -5
4 -6 11 -9 16 -6 4 3 25 -22 46 -55 22 -33 42 -60 47 -60 11 0 10 3 -38 82
-25 42 -45 80 -45 87 0 6 -4 11 -8 11 -4 0 -21 24 -36 53 -15 28 -35 58 -44
65 -9 6 -12 12 -6 12 5 0 3 4 -5 9 -8 5 -16 15 -17 23 -1 7 -6 24 -11 37 -9
21 -11 19 -31 -33z"/>
<path d="M8476 7162 c-144 -366 -328 -660 -660 -1056 -181 -215 -451 -435
-767 -626 -73 -44 -135 -83 -138 -86 -12 -13 67 31 188 103 322 194 598 431
803 690 18 24 64 82 102 129 128 160 254 362 356 569 90 185 166 362 158 371
-2 2 -21 -40 -42 -94z"/>
<path d="M9015 7083 c-173 -318 -380 -581 -754 -953 -315 -314 -458 -431 -890
-733 -69 -48 -165 -115 -213 -148 -86 -60 -103 -79 -73 -79 20 0 391 252 565
383 133 101 202 157 420 338 192 161 560 551 709 753 103 139 242 380 277 480
24 66 8 51 -41 -41z"/>
<path d="M13193 6924 c-438 -457 -950 -881 -1388 -1150 -511 -313 -913 -496
-1553 -706 -84 -28 -151 -52 -149 -55 16 -15 715 238 976 354 175 78 497 250
718 384 103 63 371 242 413 276 8 6 83 65 166 131 223 177 374 311 622 556
210 208 391 396 379 396 -3 0 -85 -84 -184 -186z"/>
<path d="M5148 6891 c8 -4 12 -10 10 -13 -3 -5 21 -41 62 -92 47 -58 50 -63
44 -80 -5 -14 -9 -13 -26 7 l-19 22 17 -27 c9 -15 20 -26 24 -23 5 3 15 -4 23
-15 7 -11 17 -17 21 -13 4 4 4 0 0 -10 -5 -15 -9 -15 -22 -5 -9 7 4 -16 28
-52 52 -79 49 -75 55 -68 3 3 -1 13 -10 22 -9 9 -14 16 -10 16 3 0 -6 12 -20
27 -14 15 -25 32 -25 38 1 5 10 -1 21 -15 73 -90 90 -108 109 -113 20 -5 20
-3 -6 41 -25 43 -101 150 -115 162 -3 3 -31 41 -62 85 -78 110 -82 115 -98
115 -12 0 -12 -2 -1 -9z"/>
<path d="M5000 6863 c-8 -3 -26 -10 -39 -15 -18 -6 -21 -11 -12 -22 6 -7 7
-17 3 -21 -4 -5 -1 -5 6 -1 7 4 12 2 12 -5 0 -8 7 -6 19 5 11 10 18 23 17 29
-2 7 -1 8 2 4 2 -5 13 -1 23 9 31 28 22 3 -11 -31 l-30 -31 36 -52 c20 -29 43
-52 51 -52 8 0 12 -4 8 -10 -9 -15 89 -145 113 -148 12 -2 22 -1 22 2 0 3 -43
65 -95 138 -52 73 -95 137 -95 142 0 5 14 -9 32 -32 18 -23 36 -42 40 -42 14
0 20 22 9 33 -7 7 -7 14 1 24 8 10 7 12 -5 8 -8 -4 -18 -2 -22 4 -3 6 -2 11 4
11 19 0 -10 48 -33 54 -25 7 -36 6 -56 -1z"/>
<path d="M4837 6828 c4 -7 8 -18 9 -24 4 -24 57 -93 67 -87 6 4 7 1 3 -6 -9
-13 37 -86 59 -95 7 -2 30 -30 50 -60 20 -31 41 -56 45 -56 25 0 15 29 -41
111 -34 50 -55 88 -48 85 8 -4 2 2 -13 14 -16 12 -28 27 -28 34 0 18 -78 96
-96 96 -10 0 -12 -5 -7 -12z"/>
<path d="M14990 6509 c-96 -63 -190 -122 -335 -212 -396 -246 -910 -516 -1342
-705 -476 -209 -1290 -516 -1555 -587 -38 -10 -68 -22 -68 -26 0 -5 2 -9 5 -9
18 0 502 164 640 217 94 35 208 78 255 95 371 132 845 336 1220 524 369 186
774 420 1100 637 91 60 169 113 175 118 21 20 -5 6 -95 -52z"/>
<path d="M5190 6421 c0 -5 9 -15 20 -21 15 -8 20 -8 20 2 0 7 12 0 28 -17 45
-50 137 -177 135 -186 -2 -5 2 -8 8 -6 6 1 13 -6 14 -16 2 -9 30 -48 63 -85
76 -87 114 -148 47 -77 -26 28 -59 66 -74 85 -14 19 -34 44 -44 55 -10 11 -41
53 -68 93 l-49 74 0 -88 c0 -86 1 -88 38 -133 20 -25 53 -62 72 -82 19 -20 59
-62 88 -94 l53 -58 30 29 c16 15 29 34 29 41 0 7 4 12 8 11 16 -5 103 106 98
125 -2 9 0 15 5 11 47 -29 -82 144 -213 285 -67 73 -74 56 -8 -21 30 -35 60
-72 68 -83 21 -28 -43 39 -101 105 l-47 55 -110 3 c-74 3 -110 1 -110 -7z"/>
<path d="M6140 6323 c1 -14 27 -43 33 -36 4 3 7 1 7 -6 0 -8 6 -11 16 -7 9 3
12 2 9 -5 -8 -12 24 -51 35 -44 9 5 7 -21 -1 -30 -3 -2 -22 10 -42 29 -20 19
-37 32 -37 29 0 -2 -10 1 -22 8 -13 6 1 -11 30 -39 65 -61 68 -76 5 -25 -27
21 -42 31 -35 21 10 -13 10 -17 0 -22 -7 -3 -4 -4 7 -3 13 1 20 -4 20 -14 0
-9 6 -23 13 -32 16 -19 9 -34 -55 -119 -40 -52 -44 -61 -31 -74 17 -18 49 -8
41 12 -11 28 17 13 42 -23 29 -44 33 -68 9 -59 -14 5 -15 4 -4 -9 7 -8 17 -12
23 -8 5 3 7 1 4 -4 -4 -6 3 -19 15 -29 12 -11 18 -13 14 -6 -12 21 3 33 27 21
l22 -12 -20 24 c-10 13 -38 44 -61 69 -40 44 -61 80 -46 80 4 0 24 -21 44 -47
38 -50 108 -121 108 -111 0 4 -22 35 -50 69 -44 55 -58 79 -46 79 2 0 22 -25
45 -55 43 -56 79 -79 41 -25 -16 22 -17 28 -6 24 9 -3 16 -10 16 -15 0 -5 7
-9 17 -9 14 0 15 2 1 18 -31 36 -30 46 3 17 18 -16 37 -34 41 -40 5 -6 8 -6 8
2 0 6 -4 15 -10 18 -5 3 -15 16 -22 28 -11 21 -10 21 8 7 10 -8 23 -21 27 -27
4 -7 13 -13 19 -13 7 0 6 6 -2 15 -17 21 -6 30 13 11 13 -13 15 -12 15 12 3
82 -87 342 -118 342 -6 0 -10 -4 -10 -8 0 -5 -7 -17 -16 -28 -8 -10 -12 -13
-8 -5 5 10 3 12 -5 7 -9 -6 -9 -11 0 -22 20 -24 0 -15 -54 24 -66 49 -77 55
-77 45z"/>
<path d="M5290 6088 c0 -38 5 -49 41 -83 23 -24 48 -39 59 -37 25 4 33 -13 14
-29 -14 -12 -23 -7 -65 39 l-49 53 0 -99 0 -100 39 -31 c21 -17 42 -27 46 -23
5 4 5 1 0 -7 -18 -32 70 15 127 67 l27 25 -69 71 c-38 39 -92 99 -120 134
l-50 63 0 -43z"/>
<path d="M5750 6060 c0 -8 23 -40 50 -70 28 -30 71 -82 96 -115 l46 -60 -48
50 c-27 28 -73 78 -102 112 l-54 61 -36 -41 c-71 -82 -69 -71 -25 -119 22 -24
63 -68 91 -99 56 -60 60 -69 37 -69 -8 0 -15 3 -15 8 0 9 -96 112 -105 112 -3
0 -20 16 -37 36 l-31 35 -26 -26 -26 -26 85 -80 c66 -61 92 -79 115 -80 24 0
26 -2 11 -8 -17 -6 -15 -11 20 -39 21 -18 48 -32 60 -32 11 0 29 -10 40 -22
19 -22 19 -23 -1 -8 -18 14 -19 14 -6 -2 7 -10 18 -15 23 -12 5 4 24 -7 41
-23 40 -36 94 -66 121 -67 35 -2 100 -45 124 -84 l24 -37 -33 30 c-19 17 -36
33 -39 37 -3 4 -12 3 -20 -2 -13 -8 -12 -10 3 -10 10 0 16 -4 12 -9 -3 -6 8
-20 25 -32 16 -13 30 -29 30 -36 0 -7 8 -13 18 -13 10 0 24 -6 30 -12 10 -10
14 -8 18 8 3 12 17 27 30 34 13 8 24 20 24 29 0 12 2 13 13 2 10 -11 10 -14 0
-18 -7 -3 -13 -9 -13 -15 0 -5 -10 -18 -22 -28 -13 -10 -20 -21 -17 -24 3 -4
17 5 31 19 l25 25 23 -25 24 -25 -28 -29 c-24 -25 -25 -29 -11 -41 18 -15 40
-1 50 31 5 15 10 17 19 10 10 -8 13 -1 14 31 2 39 1 40 -16 25 -17 -16 -20
-15 -42 8 -13 14 -21 28 -17 31 3 4 -5 21 -19 39 -14 18 -23 39 -22 46 2 8 -5
14 -14 14 -9 0 -20 4 -25 9 -5 5 -2 6 6 1 10 -5 12 -4 7 4 -4 6 -11 9 -15 6
-5 -2 -19 7 -32 21 -60 65 -215 154 -304 174 -22 5 -59 10 -82 10 -25 0 -43 5
-43 11 0 15 109 2 178 -22 30 -10 76 -31 101 -45 25 -14 56 -27 69 -29 l23 -2
-20 21 c-25 26 -27 38 -6 30 32 -13 12 18 -60 91 -41 41 -75 79 -75 85 0 5 5
21 12 35 15 34 3 43 -25 17 -13 -12 -27 -19 -32 -15 -4 5 -5 3 -1 -4 3 -6 2
-14 -3 -17 -5 -3 -48 40 -97 97 -120 140 -124 145 -124 127z"/>
<path d="M5187 5875 c-11 -74 -8 -173 4 -181 8 -4 8 -9 0 -17 -6 -6 -11 -17
-11 -25 0 -12 3 -12 15 -2 8 6 20 8 26 4 7 -4 9 -3 6 2 -3 6 3 15 14 22 10 7
19 8 19 3 0 -5 -6 -12 -12 -14 -8 -3 -6 -6 5 -6 15 -1 17 10 17 92 l-1 92 -38
39 -38 38 -6 -47z"/>
<path d="M14610 5880 c-78 -41 -95 -47 -85 -30 7 11 -30 -1 -68 -22 -12 -7
-26 -11 -30 -10 -5 1 -5 -3 -1 -9 5 -9 2 -10 -10 -6 -11 5 -15 3 -10 -5 5 -8
2 -9 -10 -5 -11 5 -15 3 -10 -5 5 -8 2 -9 -10 -5 -11 5 -15 3 -10 -5 5 -8 2
-9 -9 -5 -10 4 -16 2 -14 -5 1 -6 -4 -13 -12 -16 -8 -3 -11 0 -7 7 5 7 1 9 -8
5 -9 -3 -13 -10 -10 -15 3 -5 -39 -30 -93 -56 -54 -25 -101 -48 -105 -50 -5
-2 -8 -2 -8 1 0 3 21 17 48 30 26 14 43 25 37 25 -5 0 -44 -18 -85 -40 -41
-22 -67 -38 -57 -35 9 4 25 9 35 12 9 3 1 -4 -18 -15 -40 -23 -54 -26 -44 -10
4 8 -1 9 -16 4 -15 -5 -20 -4 -16 4 5 7 1 8 -9 4 -10 -3 -13 -8 -6 -12 6 -4
-25 -24 -69 -45 -44 -22 -77 -42 -75 -47 5 -6 -29 -23 -45 -22 -3 1 -14 -6
-25 -13 -11 -8 -26 -14 -35 -14 -9 0 -2 9 15 20 17 11 36 18 43 15 8 -3 10 0
6 7 -5 7 -2 9 8 6 9 -4 15 0 15 8 0 18 -1 18 -50 -10 -23 -14 -105 -52 -182
-86 -77 -34 -144 -66 -150 -70 -5 -4 -59 -29 -120 -55 -60 -25 -180 -80 -265
-120 -147 -70 -516 -235 -525 -235 -2 0 -38 -16 -81 -36 -158 -73 -491 -199
-686 -260 -38 -12 -58 -23 -58 -33 0 -11 -3 -12 -8 -4 -5 8 -49 -3 -153 -37
-220 -72 -679 -187 -679 -169 0 12 52 48 170 118 94 56 206 141 184 141 -4 0
-29 -18 -55 -40 -27 -22 -94 -68 -151 -101 -57 -33 -121 -77 -143 -98 -33 -31
-54 -41 -120 -55 -44 -10 -100 -27 -124 -37 -25 -11 -83 -26 -130 -34 -47 -8
-124 -21 -171 -29 -216 -39 -820 -114 -1057 -131 -51 -4 -90 -11 -87 -16 3 -5
-19 -9 -50 -9 -30 0 -56 -5 -58 -10 -2 -6 -58 -12 -134 -15 -72 -2 -138 -5
-145 -7 -7 -2 -13 6 -14 17 0 19 9 20 143 26 79 4 146 10 150 14 7 7 -295 -2
-335 -11 -18 -3 -23 -11 -23 -35 l0 -30 -55 3 c-53 4 -76 -9 -35 -19 22 -6 17
-23 -6 -23 -9 0 -12 5 -8 11 5 9 -1 10 -22 4 -16 -4 -38 -9 -49 -10 -11 -2
-33 -8 -48 -14 -16 -6 -38 -11 -50 -11 -12 0 -35 -7 -51 -15 -23 -12 -36 -13
-59 -5 -38 13 -40 13 -31 -1 5 -8 -6 -10 -35 -7 -27 2 -41 0 -41 -8 0 -7 6
-14 13 -17 23 -9 -158 1 -208 11 -27 6 -52 7 -55 4 -3 -4 -11 -7 -17 -8 -28
-2 -31 -5 -26 -23 3 -13 12 -18 24 -16 11 2 19 -2 19 -9 0 -8 11 -16 25 -18
14 -3 25 -1 25 4 0 4 10 2 23 -5 24 -15 42 -15 190 -3 60 5 97 5 97 -1 0 -12
39 -10 48 3 4 5 13 9 20 10 27 2 32 5 43 25 10 20 9 21 -22 15 -43 -8 -50 -8
-74 -2 -11 2 -27 5 -35 5 -9 1 -11 4 -4 11 5 5 88 13 184 16 96 3 231 9 300
13 69 3 140 5 158 3 37 -4 34 -22 -4 -22 -13 0 -24 -5 -24 -11 0 -5 5 -7 12
-3 7 4 8 3 4 -4 -4 -7 -17 -12 -30 -12 -12 0 -27 -5 -34 -12 -9 -9 -12 -9 -12
1 0 10 -6 9 -25 -3 -30 -20 -41 -21 -26 -2 10 12 -14 15 -167 16 -168 1 -179
-1 -197 -20 -10 -11 -16 -22 -13 -25 6 -6 103 -14 176 -15 38 0 51 -3 46 -12
-5 -8 -2 -9 12 -4 39 16 86 27 97 23 7 -2 -6 -7 -27 -11 -29 -6 -36 -10 -25
-17 8 -5 24 -9 36 -9 12 0 24 -3 27 -8 2 -4 -14 -6 -37 -5 l-42 2 40 -10 c33
-8 42 -7 51 6 8 11 14 13 19 5 3 -6 12 -10 18 -9 28 3 180 -1 176 -6 -3 -2
-23 -7 -44 -10 -218 -30 -261 -36 -270 -36 -5 0 -38 0 -73 1 -35 1 -66 -1 -69
-4 -4 -3 6 -6 22 -6 16 0 26 -2 24 -4 -6 -6 -67 -18 -99 -20 -14 0 -30 -5 -36
-11 -20 -17 20 -21 144 -13 65 3 164 9 222 12 58 2 139 11 180 20 114 22 148
26 152 14 4 -12 68 -18 68 -6 0 4 5 8 11 8 5 0 7 -6 3 -12 -6 -10 -4 -10 7 0
7 6 22 12 34 12 11 0 27 4 34 9 10 6 -1 8 -30 4 -24 -3 -42 -3 -39 0 3 3 32 8
64 11 63 6 97 23 74 37 -6 4 -17 5 -23 1 -19 -12 -35 -10 -35 5 0 11 8 14 30
11 20 -3 30 0 30 9 0 16 -10 16 -46 2 -26 -9 -82 -4 -71 7 3 3 22 7 43 10 22
2 57 11 79 19 41 15 204 37 217 29 3 -2 9 0 13 6 3 5 17 10 30 10 13 0 27 5
31 12 5 8 -6 9 -42 4 -97 -14 -159 -18 -144 -8 13 8 135 24 182 23 10 0 20 5
24 11 3 5 12 -1 18 -14 11 -20 9 -26 -8 -44 -12 -12 -39 -31 -61 -42 -22 -12
-35 -22 -30 -22 69 -10 92 -6 129 21 29 21 51 29 83 29 28 0 43 -4 43 -12 0
-9 3 -8 10 2 5 8 22 15 37 16 69 2 174 17 179 26 4 7 -11 8 -42 4 -27 -3 -77
-8 -112 -12 -62 -6 -64 -5 -60 18 2 19 12 25 58 35 30 6 69 11 85 11 l30 0
-34 -9 c-18 -6 -31 -12 -29 -14 2 -2 28 3 58 11 42 12 195 42 219 44 2 0 -7
-9 -20 -20 l-24 -21 32 15 c17 9 80 23 139 31 130 18 131 18 116 3 -6 -6 -73
-24 -149 -39 -123 -25 -107 -32 22 -9 117 20 128 20 113 3 -7 -9 8 -1 34 17
29 20 44 37 37 41 -17 10 -1 16 81 29 111 17 105 17 102 -7 -3 -23 13 -40 23
-23 3 5 21 11 38 11 l32 1 -30 7 c-51 11 -36 33 30 47 74 16 138 18 130 4 -3
-5 -16 -10 -28 -10 -18 0 -19 -2 -7 -10 8 -5 34 -10 58 -10 38 0 42 2 42 26 0
38 -17 64 -38 57 -11 -4 -14 -3 -7 4 10 10 131 43 158 43 7 0 14 -6 14 -14 0
-8 -24 -20 -59 -30 -53 -15 -58 -18 -57 -44 1 -22 2 -23 6 -5 3 14 16 25 36
32 63 20 70 18 74 -14 3 -25 1 -27 -7 -12 -25 40 -75 4 -59 -42 6 -15 14 -21
25 -17 9 3 27 9 40 12 20 5 24 13 25 43 1 20 1 39 0 44 -2 14 50 27 114 30 35
1 60 6 57 11 -3 5 5 6 17 3 13 -3 57 1 98 9 41 8 79 14 83 14 5 0 11 -19 13
-42 l4 -43 1 47 2 46 50 11 c68 15 70 14 71 -11 1 -21 2 -21 6 -3 3 11 8 23
11 27 8 8 204 50 248 53 17 2 71 22 120 45 142 68 257 111 264 99 8 -12 37 -2
43 15 3 7 48 25 101 41 53 16 94 30 92 32 -2 2 -44 -7 -92 -21 l-89 -24 44 38
c66 58 188 126 365 205 89 40 208 95 266 123 58 27 175 82 260 122 186 86 691
338 705 352 6 5 -125 -57 -290 -139 -165 -82 -385 -188 -490 -235 -104 -48
-266 -122 -360 -166 -232 -108 -394 -165 -463 -163 -13 1 -21 -2 -19 -7 3 -4
-9 -8 -26 -9 -28 -2 -26 0 18 19 28 11 89 38 137 60 50 24 91 37 99 33 7 -5
10 -4 6 2 -4 6 20 23 56 38 34 16 79 39 101 52 32 21 56 29 99 32 5 1 5 6 1
13 -5 8 -2 9 10 5 9 -4 15 -3 12 2 -5 8 161 91 182 91 6 0 12 4 14 9 2 5 12
11 23 13 11 1 26 10 33 18 8 8 11 9 7 3 -4 -9 -1 -11 9 -7 9 3 16 10 16 14 0
4 63 38 140 76 93 45 135 71 127 77 -7 5 -3 6 11 2 15 -4 24 -2 28 9 3 8 12
12 19 10 8 -3 22 -1 32 6 16 9 15 10 -7 5 -14 -3 4 10 40 28 36 19 101 52 144
75 44 23 84 38 90 35 6 -3 8 -3 4 2 -11 11 16 28 142 91 61 29 110 56 110 59
0 6 -32 -7 -128 -55 -46 -23 -85 -40 -87 -38 -2 2 84 48 191 102 106 55 192
101 190 104 -2 2 -33 -12 -67 -30 -82 -42 -99 -49 -99 -40 0 7 169 92 183 92
5 0 5 -4 2 -10 -3 -6 1 -7 10 -3 11 4 13 8 6 13 -6 3 4 13 24 23 42 20 49 21
39 5 -5 -7 -3 -8 5 -4 7 5 10 11 6 14 -3 3 5 12 17 19 22 13 22 14 1 8 -34 -9
-36 12 -3 35 17 12 34 20 36 17 3 -3 -7 -12 -23 -21 -15 -8 -24 -15 -20 -16
10 0 137 70 137 76 0 2 -8 1 -17 -3 -42 -14 8 18 102 67 55 29 102 54 104 56
14 13 -24 -2 -89 -36z m-2213 -1027 c4 -12 -281 -128 -522 -212 -94 -32 -177
-61 -185 -64 -94 -35 -350 -108 -585 -167 -159 -39 -299 -74 -310 -77 -15 -4
-17 -2 -9 7 10 10 208 67 254 73 8 1 17 5 20 8 9 11 208 60 243 60 9 0 17 3
17 7 0 4 15 8 33 9 42 3 634 199 617 205 -7 2 34 19 91 37 57 18 111 36 119
39 8 3 24 7 35 9 10 2 22 7 25 11 3 4 14 7 25 7 11 0 19 6 17 13 -2 10 4 11
19 7 13 -5 19 -3 15 3 -4 6 3 8 16 6 13 -2 17 -1 9 2 -11 5 -8 10 10 20 26 14
41 14 46 -3z m128 -218 c-114 -91 -168 -125 -226 -139 -33 -9 -73 -24 -88 -35
-41 -29 -171 -91 -224 -107 -53 -17 -241 -54 -269 -54 -14 0 -18 8 -18 38 l0
39 76 21 c42 11 82 18 90 15 10 -4 12 0 8 11 -3 9 -10 16 -15 16 -18 0 -9 19
12 25 13 4 25 2 29 -5 9 -14 124 21 400 120 119 43 223 75 250 78 3 1 -8 -10
-25 -23z m-1750 -285 c-26 -25 -51 -34 -185 -64 -85 -19 -186 -39 -225 -45
-38 -6 -110 -18 -160 -26 -150 -25 -787 -107 -792 -101 -4 4 207 44 267 51
282 33 811 119 980 160 30 7 68 16 83 19 15 4 25 11 22 15 -3 5 1 12 7 14 30
12 31 5 3 -23z m915 -18 l0 -39 -72 -17 c-40 -10 -107 -22 -148 -28 -41 -5
-120 -18 -175 -28 -55 -10 -104 -15 -108 -10 -10 9 19 40 39 40 16 0 280 70
379 100 84 26 85 26 85 -18z"/>
<path d="M5536 5821 c-3 -4 6 -19 20 -32 14 -13 35 -37 46 -54 11 -16 -3 -6
-31 24 l-50 54 -50 -38 c-28 -20 -51 -40 -51 -44 0 -4 21 -28 48 -53 l47 -47
98 28 99 28 -79 71 c-79 73 -88 79 -97 63z"/>
<path d="M2190 5534 c0 -20 41 -138 67 -192 104 -221 370 -607 606 -879 166
-193 608 -595 775 -706 156 -103 525 -297 567 -297 6 0 21 29 33 65 13 35 44
99 68 142 25 43 43 86 40 96 -2 9 0 15 4 12 12 -7 31 30 22 40 -4 5 -1 5 6 1
7 -4 12 -2 12 5 0 7 2 10 5 8 5 -6 -17 -71 -26 -79 -10 -8 -50 -87 -53 -104
-1 -9 -5 -19 -9 -22 -4 -4 -7 -16 -7 -26 0 -10 -4 -18 -9 -18 -4 0 -12 -31
-15 -70 -9 -86 -9 -85 7 -85 6 0 16 -6 20 -12 13 -21 36 -15 42 10 2 12 9 54
14 93 5 39 16 84 26 100 9 16 13 20 10 9 -24 -76 -44 -233 -31 -244 6 -5 45
-23 86 -41 41 -18 89 -38 107 -46 31 -14 32 -13 41 19 6 17 13 45 17 61 3 15
8 26 10 24 3 -2 -2 -30 -10 -62 -8 -32 -13 -61 -11 -64 2 -4 -2 -13 -10 -20
-12 -11 -14 -10 -14 3 0 8 -6 15 -12 15 -7 0 -56 20 -108 45 -52 25 -103 45
-113 45 -10 0 -26 7 -34 16 -20 19 -33 4 -33 -40 0 -25 2 -27 17 -15 15 12 16
12 10 -3 -6 -17 3 -23 27 -19 5 1 6 -10 4 -24 -4 -19 -2 -25 8 -21 8 3 14 -1
14 -8 0 -7 41 -32 91 -55 50 -24 89 -45 86 -47 -2 -2 -44 14 -93 37 -139 64
-135 61 -129 80 3 10 -1 19 -10 23 -8 3 -15 1 -15 -4 0 -16 -129 -172 -179
-217 l-46 -41 25 -10 c41 -15 239 -82 244 -82 3 0 7 17 9 38 l4 37 1 -42 2
-41 88 -35 c50 -19 90 -30 93 -24 4 5 9 5 11 1 3 -5 3 -3 1 4 -1 8 -3 21 -4
30 0 14 -2 13 -9 -3 -13 -28 -2 76 16 148 7 32 25 83 39 114 30 65 59 149 73
213 6 30 10 36 11 20 0 -14 -5 -49 -12 -78 -13 -49 -13 -62 4 -62 6 0 30 96
42 170 4 22 4 22 5 -5 1 -16 -5 -57 -13 -90 -20 -82 -20 -80 25 -98 l40 -15 0
354 0 354 -60 30 c-33 17 -60 32 -60 35 0 6 40 -9 80 -30 39 -20 40 -20 40 18
0 29 -6 35 -52 57 -59 29 -221 117 -258 142 -14 9 -34 19 -45 22 -17 5 -20 1
-20 -26 0 -25 7 -36 33 -51 18 -11 36 -17 39 -14 3 4 -12 16 -32 29 -21 12
-33 24 -28 25 6 2 40 -15 75 -39 36 -24 73 -49 84 -56 10 -7 4 -5 -14 4 -49
23 -51 9 -3 -16 23 -11 41 -23 41 -26 0 -3 -23 7 -50 22 -29 16 -46 30 -39 34
7 5 5 9 -6 14 -23 8 -27 8 -20 -4 4 -6 -10 -3 -29 7 -27 12 -39 14 -47 6 -8
-8 4 -20 45 -43 59 -34 78 -52 25 -25 -40 21 -56 14 -64 -28 l-7 -35 -41 25
c-92 53 -170 104 -213 139 -46 38 -54 58 -12 30 16 -10 28 -12 38 -6 24 15 36
11 14 -5 -19 -14 -18 -15 6 -35 51 -40 169 -109 163 -95 -3 8 0 15 6 15 6 0
11 8 11 19 0 16 -99 96 -139 112 -9 3 -11 8 -4 12 5 3 40 -13 76 -37 61 -40
77 -45 77 -25 0 11 -191 110 -201 103 -5 -3 -19 -2 -30 1 -15 5 -18 10 -10 15
18 10 -61 40 -107 40 -51 0 -194 -52 -240 -86 -63 -48 -113 -106 -143 -169
-24 -50 -28 -54 -23 -26 4 30 3 33 -10 21 -14 -11 -14 -8 -4 21 6 19 22 51 36
73 21 33 22 42 12 65 -11 25 -11 25 7 9 17 -16 21 -16 41 -2 15 10 21 22 17
33 -4 13 10 29 51 59 31 23 61 42 66 42 7 0 7 4 0 13 -5 7 -6 21 -1 32 4 11 8
14 8 8 1 -15 61 -18 61 -3 0 6 -11 10 -25 10 -14 0 -25 3 -25 8 0 4 32 7 70 7
39 0 70 -3 70 -7 0 -5 -12 -9 -27 -9 -17 -1 -8 -5 22 -10 53 -9 65 -5 47 13
-7 7 -12 21 -12 31 0 16 6 19 35 15 19 -2 35 -1 35 3 0 6 -173 100 -185 100
-3 -1 -39 15 -81 34 -42 19 -78 35 -81 35 -2 0 -1 -9 2 -20 10 -31 -5 -24 -16
8 -6 19 -25 35 -62 52 -28 14 -51 31 -50 38 2 6 -2 12 -7 12 -6 0 -10 6 -10
14 0 22 -27 27 -33 5 -7 -27 -23 -24 -57 11 -29 30 -47 40 -35 19 4 -6 -11 -1
-33 10 -22 11 -42 28 -46 37 -3 9 -12 14 -20 11 -8 -3 -31 7 -52 22 -22 16
-49 32 -61 35 -13 4 -23 12 -23 17 0 6 -4 8 -9 4 -5 -3 -12 -1 -16 5 -10 17
10 11 59 -16 25 -14 51 -24 56 -22 6 2 -85 52 -202 112 -273 140 -679 393
-905 564 -18 13 -33 20 -33 16z"/>
<path d="M16335 5151 c-854 -215 -1261 -318 -1732 -442 -167 -43 -317 -79
-333 -79 -17 0 -41 -7 -54 -16 -13 -8 -85 -30 -159 -49 -73 -19 -252 -64 -396
-101 -144 -36 -264 -65 -266 -63 -2 2 -5 19 -7 38 l-3 34 80 22 c169 47 645
188 761 225 66 21 244 73 395 115 151 42 276 79 279 82 9 9 -61 -8 -285 -72
-196 -56 -367 -106 -1023 -301 -187 -55 -222 -62 -222 -44 0 22 -102 112 -154
136 -46 21 -138 42 -261 60 -16 3 -70 1 -120 -4 l-90 -10 110 1 c61 0 126 -3
145 -8 31 -7 19 -11 -96 -30 -120 -20 -319 -73 -310 -82 2 -2 48 9 102 25 55
16 162 39 240 52 136 22 143 22 200 5 94 -27 150 -61 194 -116 33 -42 40 -59
40 -95 0 -37 -3 -44 -22 -49 -531 -125 -755 -173 -1001 -215 -67 -11 -130 -22
-140 -24 -9 -2 -15 -1 -12 4 3 4 28 13 56 20 27 7 48 14 46 17 -3 2 -47 -7
-98 -21 -99 -26 -298 -65 -464 -91 -55 -8 -115 -17 -132 -20 l-33 -6 0 48 c0
28 -4 43 -8 35 -10 -15 -44 -25 -158 -46 -49 -9 -106 -21 -127 -27 -20 -5 -42
-7 -47 -4 -6 3 -10 2 -10 -3 0 -5 -12 -8 -27 -7 -16 1 -46 -2 -68 -6 -22 -4
-67 -11 -100 -14 -33 -4 -63 -9 -66 -11 -10 -6 -373 -50 -474 -58 -33 -3 -120
-8 -192 -12 -73 -4 -133 -11 -133 -16 0 -4 24 -6 53 -3 28 2 86 7 127 10 l75
5 -30 -25 -30 -26 45 24 c32 18 68 27 125 32 44 3 112 10 150 14 39 5 79 9 90
9 11 0 72 7 135 15 63 8 118 13 123 10 4 -2 7 0 7 4 0 5 18 8 41 8 22 0 43 3
45 7 3 5 17 8 32 7 15 0 45 4 67 10 22 6 78 18 125 26 47 8 115 23 153 33 l67
19 0 -28 c0 -16 -1 -29 -2 -30 -2 0 -64 -11 -138 -24 -74 -12 -124 -23 -110
-24 14 0 66 6 115 14 106 17 138 19 130 5 -3 -5 -1 -10 4 -10 6 0 11 6 11 14
0 17 113 32 118 16 3 -7 8 -6 16 3 7 9 59 21 141 32 182 25 184 25 245 36 30
5 118 18 195 30 77 11 228 38 335 59 189 38 717 156 746 167 11 4 14 -9 14
-65 0 -76 -13 -119 -39 -127 -54 -16 -603 -120 -796 -149 -333 -51 -546 -73
-1170 -121 -104 -8 -224 -17 -267 -21 -68 -5 -77 -4 -81 13 -4 16 -5 16 -6 1
0 -10 -4 -18 -8 -19 -5 0 -21 -2 -38 -4 -16 -2 -82 -6 -146 -9 -151 -7 -330
-33 -349 -52 -12 -12 -11 -14 10 -14 14 0 43 5 65 9 22 5 110 14 195 20 85 7
172 14 193 16 31 4 37 2 37 -14 0 -16 -11 -19 -97 -25 -54 -4 -119 -9 -145
-12 -26 -2 -49 0 -53 6 -9 14 -48 13 -63 -2 -15 -15 -13 -14 -110 -16 -69 -2
-73 -3 -70 -24 3 -23 36 -34 44 -14 3 8 27 14 62 15 31 1 59 4 61 7 2 2 13 -3
23 -13 16 -15 20 -15 36 0 17 15 44 19 229 32 l82 6 4 -33 4 -33 1 33 c2 26 6
32 25 33 66 2 182 10 257 19 47 5 129 12 183 16 l97 7 1 -39 1 -39 10 41 10
41 122 7 c67 4 135 4 152 1 25 -5 27 -5 10 6 -13 8 -59 10 -153 7 -131 -4
-134 -4 -131 16 3 19 12 22 98 29 451 36 1050 121 1460 207 107 23 259 55 336
71 286 59 1027 228 1199 273 120 32 87 33 -43 1 -277 -67 -1192 -265 -1225
-265 -9 0 -11 24 -7 92 l5 92 135 33 c74 19 258 65 408 103 211 54 278 68 293
60 21 -12 52 0 66 25 5 9 132 47 333 99 303 79 436 114 1000 260 118 30 447
114 730 187 689 176 809 208 785 208 -11 0 -375 -89 -810 -198z m-4775 -1275
c0 -8 -4 -17 -10 -21 -10 -6 -339 -35 -402 -35 -31 0 -38 4 -38 20 0 18 7 20
73 21 39 1 126 7 192 14 171 17 185 17 185 1z"/>
<path d="M6745 5187 c11 -7 53 -33 93 -57 39 -25 72 -47 72 -50 0 -3 -12 -11
-27 -18 -16 -6 -46 -25 -68 -41 -21 -16 -65 -42 -97 -57 -32 -16 -58 -32 -58
-36 0 -5 -5 -8 -12 -8 -24 0 -108 -44 -108 -57 0 -13 33 -13 46 0 11 10 36 8
29 -2 -3 -5 7 -4 22 3 62 28 77 36 61 32 -10 -3 -19 -2 -22 2 -3 4 5 9 16 9
12 1 26 7 32 14 8 9 7 10 -7 6 -11 -4 -16 -3 -12 3 3 6 17 7 30 4 12 -3 26 -1
29 5 4 6 1 11 -6 12 -7 0 -3 4 10 9 12 5 22 16 22 24 0 10 8 13 31 9 21 -3 29
-1 24 6 -3 6 1 11 9 11 9 0 16 5 16 10 0 13 43 13 57 -1 6 -6 19 -9 29 -7 16
4 15 7 -8 18 -16 7 -28 17 -28 22 0 15 30 8 68 -15 100 -62 297 -146 512 -218
92 -31 103 -34 80 -19 -11 7 -2 9 30 5 25 -3 -2 6 -60 20 -133 31 -306 95
-429 159 -53 27 -110 56 -128 65 -18 9 -32 19 -33 22 0 7 62 39 74 39 4 0 -1
-12 -11 -27 l-18 -26 28 17 c15 10 27 21 28 25 0 3 2 18 4 33 6 42 -12 43 -68
5 -29 -19 -58 -37 -64 -41 -7 -4 -32 6 -55 22 -57 37 -135 82 -145 82 -4 0 1
-6 12 -13z"/>
<path d="M11425 4905 c-202 -62 -561 -151 -885 -220 -172 -37 -181 -47 -13
-14 220 42 616 139 878 214 149 43 272 79 274 81 17 15 -74 -7 -254 -61z"/>
<path d="M6345 4780 c-3 -5 -15 -10 -26 -10 -10 0 -19 -5 -19 -11 0 -7 10 -9
28 -5 15 3 2 -6 -28 -20 -30 -15 -68 -27 -83 -27 -17 0 -23 -3 -15 -8 8 -5 3
-11 -17 -19 -73 -26 -70 -29 25 -25 126 7 159 10 167 19 4 4 -15 5 -42 1 -65
-7 -52 3 26 21 67 16 79 25 79 62 0 25 -3 26 -31 12 -15 -8 -19 -7 -19 5 0 17
-35 21 -45 5z"/>
<path d="M4770 4560 l0 -69 43 -21 c23 -11 34 -18 24 -15 -69 19 -68 19 -61
-11 9 -38 13 -44 27 -44 7 0 6 4 -3 10 -26 17 -2 11 45 -11 25 -12 43 -24 41
-28 -2 -3 6 -7 17 -8 48 -3 143 -14 152 -17 7 -2 11 25 11 71 l1 74 -138 70
c-77 38 -143 69 -149 69 -6 0 -10 -29 -10 -70z"/>
<path d="M15860 4489 c-197 -36 -446 -80 -1305 -230 -379 -66 -825 -144 -990
-173 -165 -30 -369 -64 -453 -77 -85 -13 -149 -25 -143 -27 30 -10 1462 228
2221 369 350 65 770 144 835 158 96 21 -23 7 -165 -20z"/>
<path d="M5174 4404 c3 -26 6 -54 6 -64 0 -13 17 -22 65 -35 36 -9 69 -15 72
-11 3 3 -3 8 -13 11 -10 4 -34 13 -52 21 -40 17 -45 17 -37 2 4 -7 -1 -4 -9 6
-22 28 -12 31 30 11 20 -9 42 -18 48 -20 6 -1 19 -5 28 -9 17 -8 44 -14 66
-15 7 -1 10 -5 7 -11 -4 -6 6 -10 22 -10 22 0 25 2 13 10 -8 5 -12 10 -7 10
18 0 76 -46 72 -58 -3 -9 1 -11 15 -7 14 4 27 -2 44 -19 13 -14 30 -26 37 -26
8 0 33 -18 57 -40 25 -24 42 -33 42 -25 0 8 -3 15 -8 15 -4 0 -13 9 -19 20
-11 16 -1 14 63 -15 42 -19 85 -35 96 -35 10 0 32 -7 49 -15 50 -26 229 -94
229 -87 0 4 -49 26 -108 49 -134 52 -199 82 -282 129 -109 62 -425 222 -481
244 l-52 21 7 -47z"/>
<path d="M16730 4374 c-170 -19 -804 -98 -1080 -134 -341 -45 -927 -117 -1190
-145 -511 -56 -654 -73 -620 -74 42 -1 745 70 1030 104 625 75 874 106 1440
181 146 19 337 44 425 55 88 10 167 21 175 23 33 8 -62 3 -180 -10z"/>
<path d="M4390 4276 c0 -7 27 -25 60 -39 33 -15 60 -28 60 -30 0 -1 -9 -3 -20
-3 -11 0 -20 4 -20 8 0 4 -7 8 -15 8 -8 0 -15 -3 -15 -7 0 -8 240 -145 273
-156 9 -4 17 -11 17 -17 0 -5 7 -10 15 -10 11 0 15 11 15 39 l0 39 -117 59
c-64 32 -133 67 -152 77 -74 39 -101 48 -101 32z"/>
<path d="M5485 4145 c17 -8 27 -14 22 -15 -4 0 0 -11 8 -24 11 -17 13 -26 5
-31 -6 -4 -12 -5 -14 -4 -1 2 -10 16 -19 32 -15 22 -21 26 -37 17 -23 -13 -40
-13 -20 0 18 11 13 17 -25 25 -25 5 -27 4 -12 -5 20 -13 14 -30 -11 -29 -14 0
-14 2 3 10 17 8 16 9 -7 6 -16 -3 -28 0 -28 5 0 5 -7 8 -16 6 -8 -2 -14 -7
-12 -12 2 -4 -13 -13 -32 -20 -19 -6 -34 -15 -33 -21 1 -5 -7 -13 -17 -17 -16
-6 -17 -10 -7 -32 l12 -25 13 35 c17 41 35 46 26 7 l-7 -28 20 24 c11 14 25
21 31 17 16 -10 15 -27 0 -23 -9 1 -14 -13 -16 -40 -3 -39 -1 -43 25 -49 15
-4 33 -10 38 -14 6 -4 27 -7 48 -5 24 1 33 -1 25 -6 -7 -5 -31 -9 -53 -10 -22
0 -51 -4 -65 -8 -24 -7 -23 -8 21 -29 55 -27 143 -30 177 -6 12 8 22 11 22 6
0 -29 -161 -54 -220 -34 -29 11 -31 10 -28 -10 4 -28 35 -37 173 -47 123 -10
151 -4 197 45 51 55 56 107 17 186 -22 43 -23 52 -7 42 7 -5 8 -3 4 5 -5 7
-10 10 -13 7 -3 -3 -17 4 -32 15 -15 12 -27 16 -29 10 -2 -7 -14 -4 -30 7 -27
19 -106 53 -120 51 -4 0 7 -7 23 -14z"/>
<path d="M7500 4040 c0 -5 5 -10 10 -10 6 0 10 -21 10 -46 0 -45 -1 -46 -26
-40 -17 5 -23 3 -19 -4 3 -5 15 -10 26 -10 10 0 19 -7 19 -15 0 -17 -21 -20
-35 -6 -6 6 -52 5 -125 -3 -88 -10 -103 -14 -65 -16 101 -5 119 -8 123 -19 3
-9 7 -9 18 0 11 9 14 8 14 -7 1 -17 2 -17 10 -3 11 19 51 20 58 2 2 -8 -7 -13
-25 -14 -15 0 -21 -3 -13 -6 8 -2 22 -7 30 -11 14 -5 24 -8 62 -14 9 -2 17 2
18 7 0 6 -11 11 -25 13 -20 3 -25 8 -23 25 4 27 50 71 59 56 3 -6 8 -10 10 -8
2 1 15 -1 28 -6 13 -4 27 -3 33 3 8 8 5 9 -9 6 -12 -3 -24 -1 -27 5 -4 6 0 11
10 11 30 0 2 18 -43 28 -25 6 -43 6 -43 1 0 -5 5 -9 10 -9 6 0 10 -4 10 -10 0
-5 -9 -10 -20 -10 -16 0 -20 9 -26 60 -4 41 -11 60 -20 60 -8 0 -14 -4 -14
-10z"/>
<path d="M3592 3748 c2 -16 9 -22 21 -20 12 2 17 -2 15 -11 -10 -46 405 -327
482 -327 12 0 19 -4 15 -9 -3 -6 3 -15 14 -20 14 -8 20 -8 24 2 2 8 16 3 43
-15 22 -16 43 -28 46 -28 3 0 6 20 6 45 -1 24 -5 42 -10 39 -4 -3 -8 0 -8 5 0
17 -28 13 -40 -6 -8 -15 -9 -14 -5 8 6 24 0 28 -132 92 -147 71 -257 131 -391
216 -77 48 -83 50 -80 29z"/>
<path d="M10113 3612 c-29 -15 -53 -29 -53 -33 0 -16 385 -199 420 -199 6 0
10 24 10 54 0 49 -2 55 -22 59 l-23 4 23 2 c17 1 22 7 22 30 0 16 -6 33 -12
38 -7 5 -74 18 -148 27 -74 10 -143 22 -155 27 -16 8 -14 9 13 6 17 -2 32 0
32 5 0 16 -56 6 -107 -20z"/>
<path d="M14240 3362 c0 -4 91 -22 203 -40 597 -97 891 -147 1156 -197 162
-31 296 -54 298 -52 8 8 -745 149 -1077 202 -384 61 -536 86 -557 90 -13 3
-23 2 -23 -3z"/>
<path d="M4147 3314 c-3 -3 -3 -13 0 -22 4 -9 2 -13 -4 -9 -6 4 -19 -6 -29
-21 -9 -15 -53 -60 -96 -101 -43 -41 -78 -78 -78 -82 0 -5 10 -9 23 -9 27 0
77 48 77 73 0 9 7 17 16 17 9 0 12 5 8 13 -5 7 -1 7 12 -3 10 -8 21 -16 23
-17 2 -2 -20 -25 -49 -53 -33 -31 -47 -50 -37 -50 22 0 58 31 50 43 -3 6 -1 7
4 4 12 -8 99 81 132 135 25 42 21 78 -10 78 -10 0 -19 -5 -19 -11 0 -5 -5 -7
-10 -4 -6 4 -8 11 -5 16 7 10 2 12 -8 3z"/>
<path d="M4661 3198 c-5 -13 -7 -31 -5 -40 1 -10 -2 -18 -7 -18 -6 0 -9 -6 -6
-12 2 -7 10 -12 16 -10 14 3 14 -21 0 -35 -16 -16 -13 -144 4 -185 8 -19 33
-54 56 -77 l41 -42 0 206 c0 204 0 206 -22 214 -63 23 -68 23 -77 -1z"/>
<path d="M4780 3123 l0 -58 138 -52 c132 -50 272 -97 492 -164 58 -18 97 -35
88 -37 -26 -5 -465 132 -538 168 -19 10 -38 19 -42 20 -4 1 -37 12 -73 25
l-65 24 0 -144 0 -144 43 -11 c23 -6 69 -22 102 -34 33 -13 74 -27 92 -30 l32
-7 4 53 3 53 2 -57 2 -56 50 -11 c72 -15 70 -16 70 39 l0 50 113 -1 c61 -1 99
-4 84 -6 -27 -4 -28 -6 -26 -64 l2 -59 59 0 c37 0 57 -4 53 -10 -3 -5 -30 -10
-60 -10 -33 0 -55 -5 -58 -12 -4 -9 -6 -7 -6 3 -1 13 -17 18 -72 23 -40 3 -73
5 -75 3 -2 -1 -1 -13 3 -25 5 -20 12 -22 87 -23 44 -1 92 0 105 1 15 1 21 -2
16 -10 -5 -8 9 -10 50 -6 66 6 86 16 32 16 -51 0 -47 17 6 23 23 2 70 10 105
18 48 10 65 10 74 1 9 -9 -2 -12 -50 -12 -89 0 -84 -19 10 -35 21 -3 40 -11
44 -17 7 -11 -19 -9 -105 8 -23 5 -32 4 -28 -3 4 -6 0 -13 -8 -17 -8 -3 -15
-10 -15 -15 0 -11 125 -35 139 -26 8 4 11 -55 11 -194 0 -122 4 -202 10 -206
9 -6 15 122 15 328 l0 58 55 -7 c30 -4 56 -8 58 -9 2 -2 4 -86 5 -187 3 -247
21 -255 25 -10 2 153 5 182 17 182 9 0 15 10 15 25 0 16 -6 25 -15 25 -8 0
-15 7 -15 15 0 9 6 12 15 9 11 -5 15 2 16 27 l2 34 6 -34 c6 -34 7 -35 81 -48
41 -7 89 -15 105 -17 17 -3 51 -9 77 -14 26 -5 50 -7 53 -4 3 3 5 22 5 43 0
35 -2 39 -32 43 -121 20 -163 26 -240 32 -49 3 -88 10 -88 15 0 5 4 9 8 9 37
0 240 -24 290 -35 45 -9 62 -9 62 -1 0 7 3 8 8 1 8 -13 56 -27 176 -51 49 -10
84 -20 78 -22 -9 -3 -116 17 -230 43 -22 5 -23 3 -20 -42 2 -28 7 -46 13 -43
5 3 9 9 7 13 -1 5 2 6 8 2 6 -3 8 -11 5 -16 -4 -5 -3 -9 0 -9 4 0 85 -16 181
-35 95 -19 178 -35 184 -35 5 0 10 20 10 45 0 40 -3 45 -22 45 -24 0 -130 28
-113 29 10 1 155 -23 208 -35 l27 -6 0 61 0 61 -30 0 c-21 0 -30 5 -30 16 0
13 7 15 30 11 l30 -6 0 49 c0 30 -4 50 -11 50 -11 0 -300 50 -429 74 -480 90
-875 195 -1389 370 -58 20 -106 36 -108 36 -2 0 -3 -26 -3 -57z"/>
<path d="M3986 2993 l-39 -25 34 -15 c19 -8 106 -36 194 -63 l160 -48 6 27 6
26 8 -32 c7 -29 13 -33 94 -58 47 -15 100 -35 118 -45 l32 -19 -21 43 c-13 28
-31 47 -52 55 -169 67 -489 183 -499 180 -1 0 -20 -12 -41 -26z"/>
<path d="M3879 2953 c-1 -4 -1 -12 0 -17 1 -5 -5 -6 -14 -3 -8 4 -15 2 -15 -3
0 -6 -7 -10 -16 -10 -8 0 -12 -5 -9 -10 4 -7 21 -2 45 11 l38 21 68 -22 c115
-36 126 -41 119 -58 -3 -8 -3 -43 1 -76 4 -34 9 -55 11 -48 5 14 173 18 173 3
0 -5 9 -7 20 -4 14 4 20 0 20 -10 0 -9 5 -19 10 -22 6 -4 10 18 10 59 0 57 -3
66 -17 65 -11 0 -13 -3 -5 -6 6 -2 12 -9 12 -14 0 -5 -11 -4 -25 3 -13 6 -22
14 -20 19 9 13 -15 21 -30 9 -10 -8 -27 -7 -70 5 -31 9 -54 19 -51 22 3 3 26
0 51 -7 25 -7 48 -11 50 -8 5 4 -237 82 -290 93 -16 3 -38 8 -47 11 -10 3 -19
2 -19 -3z"/>
<path d="M3868 2884 c-67 -35 -78 -47 -58 -59 6 -3 10 -1 10 4 0 6 14 11 30
11 23 0 30 -5 30 -19 0 -25 19 -31 96 -31 36 0 64 -4 64 -10 0 -11 30 -14 30
-2 1 4 5 26 9 49 l8 42 -51 16 c-28 9 -59 20 -68 26 -24 12 -24 12 -100 -27z"/>
<path d="M4360 2772 c0 -78 7 -92 46 -92 19 0 34 -4 34 -10 0 -5 18 -10 40
-10 33 0 40 -3 40 -20 0 -18 7 -20 60 -20 33 0 60 -4 60 -10 0 -13 37 -13 45
1 5 6 12 4 21 -8 7 -10 14 -14 14 -10 0 5 -25 37 -56 72 -59 66 -70 73 -231
129 l-73 25 0 -47z"/>
<path d="M5197 2733 c-11 -11 -8 -81 4 -89 6 -3 40 -9 75 -12 l64 -5 0 57 0
56 -68 0 c-38 0 -72 -3 -75 -7z"/>
<path d="M4870 2679 c44 -38 100 -61 150 -61 14 0 30 -4 35 -8 10 -7 96 -30
114 -30 6 0 11 10 11 23 0 21 -8 25 -82 41 -46 10 -123 31 -172 47 -49 16 -91
29 -95 29 -3 -1 14 -19 39 -41z"/>
<path d="M5880 2468 c0 -21 9 -25 118 -45 200 -38 188 -38 195 -12 4 13 5 25
3 26 -4 4 -282 53 -301 53 -9 0 -15 -9 -15 -22z"/>
<path d="M6210 2411 c0 -21 5 -31 15 -31 8 0 15 5 15 12 0 7 5 6 13 -4 8 -10
65 -24 177 -42 196 -31 190 -31 190 -7 0 16 -11 22 -52 30 -29 5 -100 19 -158
30 -58 11 -117 22 -133 25 -15 3 -36 8 -47 11 -17 5 -20 2 -20 -24z"/>
<path d="M5850 2412 c0 -6 4 -13 9 -16 4 -3 11 -18 14 -34 5 -25 10 -27 46
-27 23 0 41 -3 41 -7 0 -5 7 -8 15 -8 8 0 15 -4 15 -10 0 -14 133 -13 148 2 7
7 12 8 12 2 0 -6 -5 -15 -12 -22 -21 -21 7 -13 30 8 12 12 22 31 22 43 0 21
-9 25 -121 46 -165 30 -219 36 -219 23z"/>
<path d="M6264 2334 c3 -9 6 -25 6 -37 0 -18 6 -22 33 -24 17 -1 84 -7 147
-12 95 -7 120 -6 144 6 15 8 24 18 20 23 -8 7 -311 60 -344 60 -7 0 -10 -7 -6
-16z"/>
<path d="M12805 2106 c17 -14 39 -28 49 -32 11 -3 40 -21 65 -39 25 -18 87
-56 136 -85 50 -29 140 -83 200 -120 61 -37 153 -93 205 -124 176 -106 370
-236 635 -427 182 -131 191 -136 182 -122 -11 18 -430 321 -607 440 -327 218
-777 490 -868 524 l-27 10 30 -25z"/>
<path d="M7834 1839 c27 -24 54 -44 61 -45 24 -4 161 -87 264 -161 153 -110
256 -200 427 -374 180 -185 281 -309 426 -529 98 -148 136 -202 113 -160 -25
46 -165 263 -199 310 -159 219 -458 535 -647 682 -115 90 -267 191 -342 229
-34 18 -82 45 -107 61 l-45 30 49 -43z"/>
<path d="M11270 1555 c194 -205 244 -254 250 -246 12 19 37 17 70 -7 53 -38
-125 141 -208 210 -40 33 -94 71 -120 85 -26 14 -56 32 -67 41 -11 9 23 -28
75 -83z"/>
<path d="M12450 1506 c0 -2 60 -48 133 -103 72 -56 144 -111 158 -124 47 -44
177 -159 316 -281 332 -290 681 -630 893 -870 52 -59 96 -105 99 -103 2 3 -7
18 -20 33 -14 15 -80 88 -146 162 -233 260 -546 564 -833 810 -80 68 -172 149
-205 180 -55 50 -380 300 -391 300 -2 0 -4 -2 -4 -4z"/>
</g>
</svg>
